<svg width="24" height="24" xmlns="http://www.w3.org/2000/svg">
    <symbol id="globe" viewBox="0 0 22 22">
        <path fill-rule="evenodd" clip-rule="evenodd" d="M11.2291 1.0266C11.115 0.999766 10.9963 0.992851 10.8786 1.00717C10.7527 1.00241 10.6265 1.00001 10.5 1.00001C10.3735 1.00001 10.2473 1.00241 10.1214 1.00717C10.0037 0.992851 9.88498 0.999766 9.77092 1.0266C7.38531 1.2009 5.1317 2.22618 3.42893 3.92894C1.55357 5.80431 0.5 8.34785 0.5 11C0.5 12.3132 0.758658 13.6136 1.2612 14.8268C1.76375 16.0401 2.50035 17.1425 3.42893 18.0711C4.35752 18.9997 5.45991 19.7363 6.67317 20.2388C7.6613 20.6481 8.70721 20.8956 9.77079 20.9734C9.8849 21.0003 10.0037 21.0072 10.1215 20.9928C10.2475 20.9976 10.3737 21 10.5 21C10.6263 21 10.7525 20.9976 10.8785 20.9928C10.9963 21.0072 11.1151 21.0003 11.2292 20.9734C12.2928 20.8956 13.3387 20.6481 14.3268 20.2388C15.5401 19.7363 16.6425 18.9997 17.5711 18.0711C18.4997 17.1425 19.2362 16.0401 19.7388 14.8268C20.2413 13.6136 20.5 12.3132 20.5 11C20.5 8.34785 19.4464 5.80431 17.5711 3.92894C15.8683 2.22618 13.6147 1.2009 11.2291 1.0266ZM8.1235 3.36114C6.89676 3.74282 5.76832 4.41799 4.84315 5.34316C4.34444 5.84186 3.91838 6.39963 3.57177 7.00001H6.87227C7.15774 5.74757 7.57685 4.52748 8.1235 3.36114ZM8.93027 7.00001C9.27976 5.64645 9.80634 4.33982 10.5 3.11507C11.1937 4.33982 11.7202 5.64645 12.0697 7.00001H8.93027ZM6.53365 9.00001H2.75401C2.58671 9.64789 2.5 10.3195 2.5 11C2.5 11.6762 2.58573 12.3482 2.75403 13H6.53365C6.45964 12.338 6.4222 11.6703 6.4222 11C6.4222 10.3297 6.45964 9.66203 6.53365 9.00001ZM8.54769 13C8.46439 12.3389 8.4222 11.6709 8.4222 11C8.4222 10.3291 8.46439 9.66116 8.54769 9.00001H12.4523C12.5356 9.66116 12.5778 10.3291 12.5778 11C12.5778 11.6709 12.5356 12.3389 12.4523 13H8.54769ZM6.87227 15H3.5718C3.92061 15.6042 4.34772 16.1614 4.84315 16.6569C5.58601 17.3997 6.46793 17.989 7.43853 18.3911C7.66336 18.4842 7.89192 18.5668 8.12349 18.6389C7.57685 17.4725 7.15774 16.2524 6.87227 15ZM10.5 18.885C9.80634 17.6602 9.27976 16.3536 8.93027 15H12.0697C11.7202 16.3536 11.1937 17.6602 10.5 18.885ZM12.8765 18.6389C13.1081 18.5668 13.3366 18.4842 13.5615 18.3911C14.5321 17.989 15.414 17.3997 16.1569 16.6569C16.6523 16.1614 17.0794 15.6042 17.4282 15H14.1277C13.8423 16.2524 13.4231 17.4725 12.8765 18.6389ZM14.4663 13H18.246C18.4143 12.3482 18.5 11.6762 18.5 11C18.5 10.3195 18.4133 9.64789 18.246 9.00001H14.4663C14.5404 9.66203 14.5778 10.3297 14.5778 11C14.5778 11.6703 14.5404 12.338 14.4663 13ZM14.1277 7.00001H17.4282C17.0816 6.39963 16.6556 5.84186 16.1569 5.34316C15.2317 4.41799 14.1032 3.74282 12.8765 3.36114C13.4231 4.52748 13.8423 5.74757 14.1277 7.00001Z"  stroke="white" stroke-linecap="round" stroke-linejoin="round"/>
    </symbol>

    <symbol id="phone" viewBox="0 0 24 24">
        <path fill-rule="evenodd" clip-rule="evenodd" d="M8.72956 1.51875C8.5556 1.20165 8.22096 1 7.85294 1H3.61765L3.44073 1.00494C1.80121 1.09665 0.5 2.45519 0.5 4.11765C1.05192 13.23 8.26998 20.4481 17.3217 20.9982C19.1042 21 20.5 19.6042 20.5 17.8824V13.6471L20.4926 13.5258C20.4489 13.1668 20.2131 12.8553 19.8714 12.7186L14.5773 10.6009L14.4622 10.5627C14.0366 10.4496 13.5799 10.6291 13.3484 11.0149L12.255 12.836L12.0954 12.7399C10.7483 11.8916 9.6084 10.7517 8.76007 9.40464L8.663 9.244L10.4851 8.15161L10.5851 8.08309C10.9327 7.81276 11.0662 7.34047 10.8991 6.92273L8.78142 1.62861L8.72956 1.51875ZM3.61765 3H7.176L8.726 6.874L6.80903 8.02486L6.71107 8.09175C6.33953 8.37901 6.21418 8.89382 6.42667 9.32467C7.65799 11.8213 9.67865 13.842 12.1753 15.0733L12.2846 15.1195C12.7273 15.2763 13.228 15.1029 13.4751 14.691L14.625 12.773L18.5 14.324V17.8824L18.4934 18.0041C18.4328 18.5641 17.9585 19 17.3824 19C9.40034 18.5131 2.98692 12.0997 2.49816 4.05699C2.5 3.50039 3.00039 3 3.61765 3Z" />
        <path d="M8.72956 1.51875L9.18171 1.30531L9.17523 1.29158L9.16793 1.27827L8.72956 1.51875ZM3.61765 1V0.499806L3.6037 0.500194L3.61765 1ZM3.44073 1.00494L3.42679 0.504934L3.41281 0.505716L3.44073 1.00494ZM0.5 4.11765H0V4.13278L0.000914603 4.14788L0.5 4.11765ZM17.3217 20.9982L17.2914 21.4972L17.3063 21.4981L17.3212 21.4982L17.3217 20.9982ZM20.5 13.6471H21V13.6319L20.9991 13.6168L20.5 13.6471ZM20.4926 13.5258L20.9917 13.4955L20.9908 13.4804L20.989 13.4653L20.4926 13.5258ZM14.5773 10.6009L14.763 10.1367L14.749 10.1311L14.7347 10.1264L14.5773 10.6009ZM14.4622 10.5627L14.6196 10.0882L14.6053 10.0834L14.5907 10.0795L14.4622 10.5627ZM13.3484 11.0149L13.7771 11.2723L13.7771 11.2722L13.3484 11.0149ZM12.255 12.836L11.9972 13.2644L12.426 13.5225L12.6837 13.0934L12.255 12.836ZM12.0954 12.7399L11.8288 13.1631L11.8375 13.1683L12.0954 12.7399ZM8.76007 9.40464L8.33206 9.66328L8.33698 9.6711L8.76007 9.40464ZM8.663 9.244L8.4059 8.81516L7.97557 9.07316L8.23506 9.50259L8.663 9.244ZM10.4851 8.15161L10.7422 8.58045L10.7552 8.57267L10.7676 8.56412L10.4851 8.15161ZM10.5851 8.08309L10.8677 8.49559L10.8801 8.48705L10.8921 8.47777L10.5851 8.08309ZM10.8991 6.92273L11.3633 6.73703L10.8991 6.92273ZM8.78142 1.62861L9.24566 1.44291L9.24003 1.42886L9.23357 1.41517L8.78142 1.62861ZM7.176 3L7.64022 2.81426L7.51448 2.5H7.176V3ZM8.726 6.874L8.98336 7.30268L9.34837 7.08354L9.19022 6.68826L8.726 6.874ZM6.80903 8.02486L6.55167 7.59618L6.53914 7.6037L6.52708 7.61194L6.80903 8.02486ZM6.71107 8.09175L6.42911 7.67884L6.41692 7.68716L6.40525 7.69619L6.71107 8.09175ZM6.42667 9.32467L6.8751 9.10351L6.42667 9.32467ZM12.1753 15.0733L11.9542 15.5218L11.9673 15.5283L11.9809 15.534L12.1753 15.0733ZM12.2846 15.1195L12.0901 15.5801L12.1037 15.5858L12.1177 15.5908L12.2846 15.1195ZM13.4751 14.691L13.9039 14.9482L13.904 14.9481L13.4751 14.691ZM14.625 12.773L14.8108 12.3088L14.4152 12.1505L14.1962 12.5159L14.625 12.773ZM18.5 14.324H19V13.9856L18.6858 13.8598L18.5 14.324ZM18.5 17.8824L18.9993 17.9092L19 17.8958V17.8824H18.5ZM18.4934 18.0041L18.9905 18.058L18.992 18.0445L18.9927 18.031L18.4934 18.0041ZM17.3824 19L17.3519 19.4991L17.3671 19.5H17.3824V19ZM2.49816 4.05699L1.99816 4.05533L1.99811 4.07134L1.99908 4.08732L2.49816 4.05699ZM7.85294 1.5C8.03684 1.5 8.20427 1.60079 8.29119 1.75923L9.16793 1.27827C8.90693 0.80251 8.40507 0.5 7.85294 0.5V1.5ZM3.61765 1.5H7.85294V0.5H3.61765V1.5ZM3.45468 1.50474L3.63159 1.49981L3.6037 0.500194L3.42679 0.50513L3.45468 1.50474ZM1 4.11765C1 2.72198 2.09253 1.58114 3.46866 1.50415L3.41281 0.505716C1.5099 0.612165 0 2.1884 0 4.11765H1ZM17.352 20.4991C8.5536 19.9644 1.53578 12.9485 0.999085 4.08742L0.000914603 4.14788C0.568054 13.5116 7.98635 20.9318 17.2914 21.4972L17.352 20.4991ZM20 17.8824C20 19.3219 18.8344 20.4997 17.3222 20.4982L17.3212 21.4982C19.374 21.5003 21 19.8865 21 17.8824H20ZM20 13.6471V17.8824H21V13.6471H20ZM19.9936 13.5561L20.0009 13.6773L20.9991 13.6168L20.9917 13.4955L19.9936 13.5561ZM19.6857 13.1828C19.8564 13.2511 19.9745 13.4069 19.9963 13.5863L20.989 13.4653C20.9233 12.9267 20.5697 12.4594 20.0571 12.2543L19.6857 13.1828ZM14.3916 11.0652L19.6857 13.1828L20.0571 12.2543L14.763 10.1367L14.3916 11.0652ZM14.3047 11.0373L14.4198 11.0755L14.7347 10.1264L14.6196 10.0882L14.3047 11.0373ZM13.7771 11.2722C13.8928 11.0795 14.1212 10.9895 14.3337 11.046L14.5907 10.0795C13.9521 9.90972 13.267 10.1788 12.9196 10.7577L13.7771 11.2722ZM12.6837 13.0934L13.7771 11.2723L12.9197 10.7575L11.8263 12.5786L12.6837 13.0934ZM11.8375 13.1683L11.9972 13.2644L12.5128 12.4076L12.3532 12.3115L11.8375 13.1683ZM8.33698 9.6711C9.22516 11.0814 10.4186 12.2748 11.8289 13.163L12.3618 12.3168C11.078 11.5084 9.99165 10.422 9.18316 9.13819L8.33698 9.6711ZM8.23506 9.50259L8.33213 9.66323L9.18801 9.14605L9.09094 8.98541L8.23506 9.50259ZM10.228 7.72277L8.4059 8.81516L8.9201 9.67284L10.7422 8.58045L10.228 7.72277ZM10.3026 7.67058L10.2025 7.7391L10.7676 8.56412L10.8677 8.49559L10.3026 7.67058ZM10.4348 7.10842C10.5183 7.31708 10.4517 7.55343 10.2782 7.6884L10.8921 8.47777C11.4137 8.0721 11.614 7.36385 11.3633 6.73703L10.4348 7.10842ZM8.31718 1.8143L10.4348 7.10842L11.3633 6.73703L9.24566 1.44291L8.31718 1.8143ZM8.27741 1.7322L8.32927 1.84205L9.23357 1.41517L9.18171 1.30531L8.27741 1.7322ZM7.176 2.5H3.61765V3.5H7.176V2.5ZM9.19022 6.68826L7.64022 2.81426L6.71178 3.18574L8.26178 7.05974L9.19022 6.68826ZM7.06639 8.45354L8.98336 7.30268L8.46864 6.44532L6.55167 7.59618L7.06639 8.45354ZM6.99303 8.50467L7.09099 8.43778L6.52708 7.61194L6.42911 7.67884L6.99303 8.50467ZM6.8751 9.10351C6.76898 8.88833 6.83145 8.63069 7.0169 8.48732L6.40525 7.69619C5.84761 8.12732 5.65938 8.8993 5.97824 9.54582L6.8751 9.10351ZM12.3965 14.6249C9.99852 13.4423 8.05774 11.5015 6.8751 9.10351L5.97824 9.54582C7.25823 12.1412 9.35879 14.2418 11.9542 15.5218L12.3965 14.6249ZM12.4791 14.6588L12.3698 14.6127L11.9809 15.534L12.0901 15.5801L12.4791 14.6588ZM13.0464 14.4337C12.923 14.6394 12.6725 14.7264 12.4516 14.6482L12.1177 15.5908C12.7821 15.8261 13.533 15.5664 13.9039 14.9482L13.0464 14.4337ZM14.1962 12.5159L13.0463 14.4339L13.904 14.9481L15.0538 13.0301L14.1962 12.5159ZM18.6858 13.8598L14.8108 12.3088L14.4392 13.2372L18.3142 14.7882L18.6858 13.8598ZM19 17.8824V14.324H18V17.8824H19ZM18.9927 18.031L18.9993 17.9092L18.0007 17.8555L17.9942 17.9772L18.9927 18.031ZM17.3824 19.5C18.2165 19.5 18.9026 18.869 18.9905 18.058L17.9964 17.9503C17.9629 18.2592 17.7004 18.5 17.3824 18.5V19.5ZM1.99908 4.08732C2.5031 12.3811 9.11656 18.9967 17.3519 19.4991L17.4128 18.5009C9.68412 18.0295 3.47074 11.8182 2.99724 4.02666L1.99908 4.08732ZM3.61765 2.5C2.742 2.5 2.00097 3.20644 1.99816 4.05533L2.99816 4.05864C2.99903 3.79434 3.25878 3.5 3.61765 3.5V2.5Z" fill="white"/>
    </symbol>

    <symbol id="calendar" viewBox="0 0 22 24">
        <path fill-rule="evenodd" clip-rule="evenodd" d="M15.5 1.5C15.5 0.947715 15.0523 0.5 14.5 0.5C13.9477 0.5 13.5 0.947715 13.5 1.5V2.5H7.5V1.5C7.5 0.947715 7.05228 0.5 6.5 0.5C5.94772 0.5 5.5 0.947715 5.5 1.5V2.5H3.75C2.92358 2.5 2.11073 2.79075 1.49465 3.33838C0.874726 3.88942 0.5 4.66379 0.5 5.5V17.5C0.5 18.3362 0.874726 19.1106 1.49465 19.6616C2.11073 20.2093 2.92358 20.5 3.75 20.5H17.25C18.0764 20.5 18.8893 20.2093 19.5054 19.6616C20.1253 19.1106 20.5 18.3362 20.5 17.5V5.5C20.5 4.66379 20.1253 3.88942 19.5054 3.33838C18.8893 2.79075 18.0764 2.5 17.25 2.5H15.5V1.5ZM5.5 5.5V4.5H3.75C3.38294 4.5 3.0512 4.63068 2.82337 4.8332C2.59938 5.0323 2.5 5.27534 2.5 5.5V8.5H18.5V5.5C18.5 5.27534 18.4006 5.0323 18.1766 4.8332C17.9488 4.63068 17.6171 4.5 17.25 4.5H15.5V5.5C15.5 6.05228 15.0523 6.5 14.5 6.5C13.9477 6.5 13.5 6.05228 13.5 5.5V4.5H7.5V5.5C7.5 6.05228 7.05228 6.5 6.5 6.5C5.94772 6.5 5.5 6.05228 5.5 5.5ZM18.5 10.5H2.5V17.5C2.5 17.7247 2.59938 17.9677 2.82337 18.1668C3.0512 18.3693 3.38294 18.5 3.75 18.5H17.25C17.6171 18.5 17.9488 18.3693 18.1766 18.1668C18.4006 17.9677 18.5 17.7247 18.5 17.5V10.5Z" />
        <path d="M13.5 2.5V3C13.7761 3 14 2.77614 14 2.5H13.5ZM7.5 2.5H7C7 2.77614 7.22386 3 7.5 3V2.5ZM5.5 2.5V3C5.77614 3 6 2.77614 6 2.5H5.5ZM1.49465 3.33838L1.82683 3.71208H1.82683L1.49465 3.33838ZM1.49465 19.6616L1.16246 20.0353L1.49465 19.6616ZM19.5054 19.6616L19.8375 20.0353L19.5054 19.6616ZM19.5054 3.33838L19.8375 2.96467L19.5054 3.33838ZM15.5 2.5H15C15 2.77614 15.2239 3 15.5 3V2.5ZM5.5 4.5H6C6 4.22386 5.77614 4 5.5 4V4.5ZM2.82337 4.8332L2.49119 4.45949L2.49119 4.45949L2.82337 4.8332ZM2.5 8.5H2C2 8.77614 2.22386 9 2.5 9V8.5ZM18.5 8.5V9C18.7761 9 19 8.77614 19 8.5H18.5ZM18.1766 4.8332L18.5088 4.45949L18.5088 4.45949L18.1766 4.8332ZM15.5 4.5V4C15.2239 4 15 4.22386 15 4.5H15.5ZM13.5 4.5H14C14 4.22386 13.7761 4 13.5 4V4.5ZM7.5 4.5V4C7.22386 4 7 4.22386 7 4.5H7.5ZM18.5 10.5H19C19 10.2239 18.7761 10 18.5 10V10.5ZM2.5 10.5V10C2.22386 10 2 10.2239 2 10.5H2.5ZM2.82337 18.1668L2.49119 18.5405L2.49119 18.5405L2.82337 18.1668ZM18.1766 18.1668L18.5088 18.5405L18.5088 18.5405L18.1766 18.1668ZM14.5 1C14.7761 1 15 1.22386 15 1.5H16C16 0.671573 15.3284 0 14.5 0V1ZM14 1.5C14 1.22386 14.2239 1 14.5 1V0C13.6716 0 13 0.671573 13 1.5H14ZM14 2.5V1.5H13V2.5H14ZM7.5 3H13.5V2H7.5V3ZM7 1.5V2.5H8V1.5H7ZM6.5 1C6.77614 1 7 1.22386 7 1.5H8C8 0.671573 7.32843 0 6.5 0V1ZM6 1.5C6 1.22386 6.22386 1 6.5 1V0C5.67157 0 5 0.671573 5 1.5H6ZM6 2.5V1.5H5V2.5H6ZM3.75 3H5.5V2H3.75V3ZM1.82683 3.71208C2.34576 3.2508 3.03831 3 3.75 3V2C2.80886 2 1.87569 2.33069 1.16246 2.96467L1.82683 3.71208ZM1 5.5C1 4.81692 1.3057 4.17531 1.82683 3.71208L1.16246 2.96467C0.443756 3.60352 0 4.51066 0 5.5H1ZM1 17.5V5.5H0V17.5H1ZM1.82683 19.2879C1.3057 18.8247 1 18.1831 1 17.5H0C0 18.4893 0.443756 19.3965 1.16246 20.0353L1.82683 19.2879ZM3.75 20C3.03831 20 2.34576 19.7492 1.82683 19.2879L1.16246 20.0353C1.87569 20.6693 2.80886 21 3.75 21V20ZM17.25 20H3.75V21H17.25V20ZM19.1732 19.2879C18.6542 19.7492 17.9617 20 17.25 20V21C18.1911 21 19.1243 20.6693 19.8375 20.0353L19.1732 19.2879ZM20 17.5C20 18.1831 19.6943 18.8247 19.1732 19.2879L19.8375 20.0353C20.5562 19.3965 21 18.4893 21 17.5H20ZM20 5.5V17.5H21V5.5H20ZM19.1732 3.71208C19.6943 4.17531 20 4.81692 20 5.5H21C21 4.51066 20.5562 3.60352 19.8375 2.96467L19.1732 3.71208ZM17.25 3C17.9617 3 18.6542 3.2508 19.1732 3.71208L19.8375 2.96467C19.1243 2.33069 18.1911 2 17.25 2V3ZM15.5 3H17.25V2H15.5V3ZM15 1.5V2.5H16V1.5H15ZM5 4.5V5.5H6V4.5H5ZM3.75 5H5.5V4H3.75V5ZM3.15556 5.2069C3.28653 5.09048 3.49807 5 3.75 5V4C3.26782 4 2.81588 4.17088 2.49119 4.45949L3.15556 5.2069ZM3 5.5C3 5.42744 3.03117 5.31747 3.15556 5.2069L2.49119 4.45949C2.16759 4.74713 2 5.12324 2 5.5H3ZM3 8.5V5.5H2V8.5H3ZM2.5 9H18.5V8H2.5V9ZM18 5.5V8.5H19V5.5H18ZM17.8444 5.2069C17.9688 5.31747 18 5.42744 18 5.5H19C19 5.12324 18.8324 4.74713 18.5088 4.45949L17.8444 5.2069ZM17.25 5C17.5019 5 17.7135 5.09048 17.8444 5.2069L18.5088 4.45949C18.1841 4.17088 17.7322 4 17.25 4V5ZM15.5 5H17.25V4H15.5V5ZM16 5.5V4.5H15V5.5H16ZM14.5 7C15.3284 7 16 6.32843 16 5.5H15C15 5.77614 14.7761 6 14.5 6V7ZM13 5.5C13 6.32843 13.6716 7 14.5 7V6C14.2239 6 14 5.77614 14 5.5H13ZM13 4.5V5.5H14V4.5H13ZM7.5 5H13.5V4H7.5V5ZM8 5.5V4.5H7V5.5H8ZM6.5 7C7.32843 7 8 6.32843 8 5.5H7C7 5.77614 6.77614 6 6.5 6V7ZM5 5.5C5 6.32843 5.67157 7 6.5 7V6C6.22386 6 6 5.77614 6 5.5H5ZM18.5 10H2.5V11H18.5V10ZM3 17.5V10.5H2V17.5H3ZM3.15556 17.7931C3.03116 17.6825 3 17.5726 3 17.5H2C2 17.8768 2.16759 18.2529 2.49119 18.5405L3.15556 17.7931ZM3.75 18C3.49807 18 3.28652 17.9095 3.15555 17.7931L2.49119 18.5405C2.81588 18.8291 3.26782 19 3.75 19V18ZM17.25 18H3.75V19H17.25V18ZM17.8444 17.7931C17.7135 17.9095 17.5019 18 17.25 18V19C17.7322 19 18.1841 18.8291 18.5088 18.5405L17.8444 17.7931ZM18 17.5C18 17.5726 17.9688 17.6825 17.8444 17.7931L18.5088 18.5405C18.8324 18.2529 19 17.8768 19 17.5H18ZM18 10.5V17.5H19V10.5H18Z" fill="white"/>
    </symbol>

    <symbol id="euro" viewBox="0 0 21 22">
        <path fill-rule="evenodd" clip-rule="evenodd" d="M6.67317 1.7612C7.88642 1.25866 9.18678 1 10.5 1C11.8132 1 13.1136 1.25866 14.3268 1.7612C15.5401 2.26375 16.6425 3.00035 17.5711 3.92893C18.4997 4.85752 19.2362 5.95991 19.7388 7.17317C20.2413 8.38642 20.5 9.68678 20.5 11C20.5 12.3132 20.2413 13.6136 19.7388 14.8268C19.2362 16.0401 18.4997 17.1425 17.5711 18.0711C16.6425 18.9997 15.5401 19.7362 14.3268 20.2388C13.1136 20.7413 11.8132 21 10.5 21C9.18678 21 7.88642 20.7413 6.67317 20.2388C5.45991 19.7362 4.35752 18.9997 3.42893 18.0711C2.50035 17.1425 1.76375 16.0401 1.2612 14.8268C0.758658 13.6136 0.5 12.3132 0.5 11C0.5 9.68678 0.758658 8.38642 1.2612 7.17317C1.76375 5.95991 2.50035 4.85752 3.42893 3.92893C4.35752 3.00035 5.45991 2.26375 6.67317 1.7612ZM10.5 3C9.44942 3 8.40914 3.20693 7.43853 3.60896C6.46793 4.011 5.58601 4.60028 4.84315 5.34315C4.10028 6.08601 3.511 6.96793 3.10896 7.93853C2.70693 8.90914 2.5 9.94942 2.5 11C2.5 12.0506 2.70693 13.0909 3.10896 14.0615C3.511 15.0321 4.10028 15.914 4.84315 16.6569C5.58601 17.3997 6.46793 17.989 7.43853 18.391C8.40914 18.7931 9.44942 19 10.5 19C11.5506 19 12.5909 18.7931 13.5615 18.391C14.5321 17.989 15.414 17.3997 16.1569 16.6569C16.8997 15.914 17.489 15.0321 17.891 14.0615C18.2931 13.0909 18.5 12.0506 18.5 11C18.5 9.94942 18.2931 8.90914 17.891 7.93853C17.489 6.96793 16.8997 6.08602 16.1569 5.34315C15.414 4.60028 14.5321 4.011 13.5615 3.60896C12.5909 3.20693 11.5506 3 10.5 3ZM5.95735 8.5C6.71775 6.5042 8.37127 5 10.5 5C11.6894 5 12.7575 5.49371 13.5854 6.2709C13.9881 6.6489 14.0081 7.28174 13.6301 7.68441C13.2521 8.08708 12.6193 8.10709 12.2166 7.7291C11.7065 7.25029 11.1126 7 10.5 7C9.63637 7 8.74537 7.54917 8.1612 8.5H9.5C10.0523 8.5 10.5 8.94772 10.5 9.5C10.5 10.0523 10.0523 10.5 9.5 10.5H7.52233C7.50763 10.6623 7.5 10.829 7.5 11C7.5 11.171 7.50763 11.3377 7.52233 11.5H9.5C10.0523 11.5 10.5 11.9477 10.5 12.5C10.5 13.0523 10.0523 13.5 9.5 13.5H8.1612C8.74537 14.4508 9.63637 15 10.5 15C11.1115 15 11.7054 14.7498 12.2156 14.2709C12.6183 13.8929 13.2511 13.9129 13.6291 14.3156C14.0071 14.7183 13.9871 15.3511 13.5844 15.7291C12.7566 16.5062 11.6885 17 10.5 17C8.37127 17 6.71775 15.4958 5.95735 13.5H5.5C4.94772 13.5 4.5 13.0523 4.5 12.5C4.5 11.9477 4.94772 11.5 5.5 11.5H5.51774C5.50597 11.3342 5.5 11.1674 5.5 11C5.5 10.8326 5.50597 10.6658 5.51774 10.5H5.5C4.94772 10.5 4.5 10.0523 4.5 9.5C4.5 8.94772 4.94772 8.5 5.5 8.5H5.95735Z" fill="#616161" stroke="white" stroke-linecap="round" stroke-linejoin="round"/>
    </symbol>

   <symbol id="arrow-right" viewBox="0 0 20 20"> 
        <path fill-rule="evenodd" clip-rule="evenodd" d="M7.37936 3.33329C7.22942 3.33329 7.09421 3.3681 6.97373 3.43771C6.85325 3.50732 6.75687 3.60237 6.68458 3.72285C6.61229 3.84333 6.57614 3.97854 6.57614 4.12847C6.57614 4.34266 6.65646 4.53008 6.81711 4.69072L12.2468 9.99996L6.81711 15.3092C6.65646 15.4698 6.57614 15.6573 6.57614 15.8714C6.57614 16.0267 6.61229 16.1633 6.68458 16.2811C6.75687 16.3989 6.85325 16.4926 6.97373 16.5622C7.09421 16.6318 7.22942 16.6666 7.37936 16.6666C7.5989 16.6666 7.78364 16.589 7.93357 16.4337L13.9095 10.5943C14.0005 10.5087 14.0661 10.4163 14.1063 10.3172C14.1464 10.2182 14.1665 10.1124 14.1665 9.99996C14.1665 9.88751 14.1464 9.78175 14.1063 9.68269C14.0661 9.58363 14.0005 9.49126 13.9095 9.40558L7.93357 3.56623C7.78364 3.41094 7.5989 3.33329 7.37936 3.33329Z"/>
    </symbol>

   <symbol id="arrow-down" viewBox="0 0 19 19"> 
        <path fill-rule="evenodd" clip-rule="evenodd" d="M16.2952 7.00802C16.2952 6.85808 16.2604 6.72288 16.1908 6.60239C16.1212 6.48191 16.0262 6.38553 15.9057 6.31324C15.7852 6.24095 15.65 6.2048 15.5001 6.2048C15.2859 6.2048 15.0985 6.28513 14.9378 6.44577L9.62858 11.8755L4.31934 6.44577C4.1587 6.28513 3.97128 6.2048 3.75709 6.2048C3.60181 6.2048 3.46526 6.24095 3.34746 6.31324C3.22965 6.38553 3.13594 6.48191 3.06633 6.60239C2.99672 6.72288 2.96191 6.85808 2.96191 7.00802C2.96191 7.22756 3.03956 7.4123 3.19485 7.56223L9.0342 13.5381C9.11988 13.6292 9.21225 13.6948 9.31131 13.7349C9.41037 13.7751 9.51613 13.7952 9.62858 13.7952C9.74103 13.7952 9.84679 13.7751 9.94585 13.7349C10.0449 13.6948 10.1373 13.6292 10.223 13.5381L16.0623 7.56223C16.2176 7.4123 16.2952 7.22756 16.2952 7.00802Z"/>
    </symbol>

   <symbol id="download" viewBox="0 0 22 22"> 
        <path fill-rule="evenodd" clip-rule="evenodd" d="M10 2.5C10.4602 2.5 10.8333 2.8731 10.8333 3.33333V11.3215L13.5774 8.57741C13.9028 8.25197 14.4305 8.25197 14.7559 8.57741C15.0814 8.90285 15.0814 9.43049 14.7559 9.75592L10.5893 13.9226C10.2638 14.248 9.73618 14.248 9.41074 13.9226L5.24408 9.75592C4.91864 9.43049 4.91864 8.90285 5.24408 8.57741C5.56951 8.25197 6.09715 8.25197 6.42259 8.57741L9.16667 11.3215V3.33333C9.16667 2.8731 9.53976 2.5 10 2.5ZM3.33333 13.3333C3.79357 13.3333 4.16667 13.7064 4.16667 14.1667V15.8333C4.16667 16.0543 4.25446 16.2663 4.41074 16.4226C4.56702 16.5789 4.77899 16.6667 5 16.6667H15C15.221 16.6667 15.433 16.5789 15.5893 16.4226C15.7455 16.2663 15.8333 16.0543 15.8333 15.8333V14.1667C15.8333 13.7064 16.2064 13.3333 16.6667 13.3333C17.1269 13.3333 17.5 13.7064 17.5 14.1667V15.8333C17.5 16.4964 17.2366 17.1323 16.7678 17.6011C16.2989 18.0699 15.663 18.3333 15 18.3333H5C4.33696 18.3333 3.70107 18.0699 3.23223 17.6011C2.76339 17.1323 2.5 16.4964 2.5 15.8333V14.1667C2.5 13.7064 2.8731 13.3333 3.33333 13.3333Z" />
    </symbol>

   <symbol id="plus" viewBox="0 0 20 20"> 
        <path fill-rule="evenodd" clip-rule="evenodd" d="M9.99967 3.33325C10.4599 3.33325 10.833 3.70635 10.833 4.16659V9.16658H15.833C16.2932 9.16658 16.6663 9.53968 16.6663 9.99992C16.6663 10.4602 16.2932 10.8333 15.833 10.8333H10.833V15.8333C10.833 16.2935 10.4599 16.6666 9.99967 16.6666C9.53944 16.6666 9.16634 16.2935 9.16634 15.8333V10.8333H4.16634C3.7061 10.8333 3.33301 10.4602 3.33301 9.99992C3.33301 9.53968 3.7061 9.16658 4.16634 9.16658H9.16634V4.16659C9.16634 3.70635 9.53944 3.33325 9.99967 3.33325Z" />
    </symbol>

   <symbol id="minus" viewBox="0 0 22 22"> 
        <path fill-rule="evenodd" clip-rule="evenodd" d="M3.83301 9.99984C3.83301 9.5396 4.2061 9.1665 4.66634 9.1665H16.333C16.7932 9.1665 17.1663 9.5396 17.1663 9.99984C17.1663 10.4601 16.7932 10.8332 16.333 10.8332H4.66634C4.2061 10.8332 3.83301 10.4601 3.83301 9.99984Z"/>
    </symbol>

   <symbol id="info" viewBox="0 0 19 19"> 
        <path fill-rule="evenodd" clip-rule="evenodd" d="M9.99935 1.66667C7.78921 1.66667 5.6696 2.54464 4.10679 4.10744C2.54399 5.67025 1.66602 7.78986 1.66602 10C1.66602 11.0944 1.88156 12.178 2.30035 13.189C2.71914 14.2001 3.33297 15.1187 4.10679 15.8926C4.88061 16.6664 5.79927 17.2802 6.81032 17.699C7.82137 18.1178 8.905 18.3333 9.99935 18.3333C11.0937 18.3333 12.1773 18.1178 13.1884 17.699C14.1994 17.2802 15.1181 16.6664 15.8919 15.8926C16.6657 15.1187 17.2796 14.2001 17.6983 13.189C18.1171 12.178 18.3327 11.0943 18.3327 10C18.3327 7.78986 17.4547 5.67025 15.8919 4.10744C14.3291 2.54464 12.2095 1.66667 9.99935 1.66667ZM5.2853 5.28596C6.53555 4.03571 8.23124 3.33333 9.99935 3.33333C11.7675 3.33333 13.4632 4.03571 14.7134 5.28596C15.9636 6.5362 16.666 8.23189 16.666 10C16.666 10.8755 16.4936 11.7424 16.1585 12.5512C15.8235 13.3601 15.3325 14.095 14.7134 14.714C14.0943 15.3331 13.3594 15.8242 12.5506 16.1592C11.7417 16.4942 10.8748 16.6667 9.99935 16.6667C9.12387 16.6667 8.25696 16.4942 7.44813 16.1592C6.63929 15.8242 5.90436 15.3331 5.2853 14.714C4.66625 14.095 4.17518 13.3601 3.84015 12.5512C3.50512 11.7424 3.33268 10.8755 3.33268 10C3.33268 8.23189 4.03506 6.5362 5.2853 5.28596ZM9.99935 5.83333C9.53911 5.83333 9.16602 6.20643 9.16602 6.66667C9.16602 7.12691 9.53911 7.5 9.99935 7.5H10.0077C10.4679 7.5 10.841 7.12691 10.841 6.66667C10.841 6.20643 10.4679 5.83333 10.0077 5.83333H9.99935ZM10.841 10C10.841 9.53976 10.4679 9.16667 10.0077 9.16667C9.54745 9.16667 9.17435 9.53976 9.17435 10L9.17435 13.3333C9.17435 13.7936 9.54744 14.1667 10.0077 14.1667C10.4679 14.1667 10.841 13.7936 10.841 13.3333V10Z"/>
    </symbol>

   <symbol id="cart" viewBox="0 0 22 22"> 
        <path fill-rule="evenodd" clip-rule="evenodd" d="M2.41602 2.5C2.41602 2.03976 2.78911 1.66666 3.24935 1.66666H4.91602C5.31613 1.66666 5.65977 1.95103 5.73463 2.34407L6.08179 4.16666H18.2493C18.5136 4.16666 18.7622 4.29199 18.9193 4.50443C19.0765 4.71687 19.1235 4.99126 19.0462 5.24393L17.2605 11.0773C17.1532 11.4275 16.8299 11.6667 16.4636 11.6667H7.31833L7.10315 13.3881C7.57205 13.4879 8.00626 13.7214 8.35045 14.0656C8.38334 14.0985 8.41523 14.1322 8.44608 14.1667H13.0526C13.0835 14.1322 13.1154 14.0985 13.1482 14.0656C13.6171 13.5967 14.253 13.3333 14.916 13.3333C15.5791 13.3333 16.2149 13.5967 16.6838 14.0656C17.1526 14.5344 17.416 15.1703 17.416 15.8333C17.416 16.4964 17.1526 17.1323 16.6838 17.6011C16.2149 18.0699 15.5791 18.3333 14.916 18.3333C14.253 18.3333 13.6171 18.0699 13.1482 17.6011C12.6794 17.1323 12.416 16.4964 12.416 15.8333H9.08268C9.08268 16.4964 8.81929 17.1323 8.35045 17.6011C7.88161 18.0699 7.24572 18.3333 6.58268 18.3333C5.91964 18.3333 5.28376 18.0699 4.81492 17.6011C4.34607 17.1323 4.08268 16.4964 4.08268 15.8333C4.08268 15.1703 4.34607 14.5344 4.81492 14.0656C4.98725 13.8932 5.18216 13.7486 5.39269 13.6347L5.70805 11.1118L4.22643 3.33333H3.24935C2.78911 3.33333 2.41602 2.96023 2.41602 2.5ZM7.1929 10L6.39925 5.83333H17.1227L15.8472 10H7.1929ZM6.58268 15C6.36167 15 6.14971 15.0878 5.99343 15.2441C5.83715 15.4004 5.74935 15.6123 5.74935 15.8333C5.74935 16.0543 5.83715 16.2663 5.99343 16.4226C6.14971 16.5789 6.36167 16.6667 6.58268 16.6667C6.8037 16.6667 7.01566 16.5789 7.17194 16.4226C7.32822 16.2663 7.41602 16.0543 7.41602 15.8333C7.41602 15.6123 7.32822 15.4004 7.17194 15.2441C7.01566 15.0878 6.8037 15 6.58268 15ZM14.916 15C14.695 15 14.483 15.0878 14.3268 15.2441C14.1705 15.4004 14.0827 15.6123 14.0827 15.8333C14.0827 16.0543 14.1705 16.2663 14.3268 16.4226C14.483 16.5789 14.695 16.6667 14.916 16.6667C15.137 16.6667 15.349 16.5789 15.5053 16.4226C15.6616 16.2663 15.7493 16.0543 15.7493 15.8333C15.7493 15.6123 15.6616 15.4004 15.5053 15.2441C15.349 15.0878 15.137 15 14.916 15Z" />
    </symbol>

   <symbol id="checkmark" viewBox="0 0 20 20"> 
        <path fill-rule="evenodd" clip-rule="evenodd" d="M17.2546 5.24408C17.5801 5.56951 17.5801 6.09715 17.2546 6.42259L8.92129 14.7559C8.59585 15.0814 8.06821 15.0814 7.74278 14.7559L3.57611 10.5893C3.25067 10.2638 3.25067 9.73618 3.57611 9.41074C3.90155 9.08531 4.42918 9.08531 4.75462 9.41074L8.33203 12.9882L16.0761 5.24408C16.4015 4.91864 16.9292 4.91864 17.2546 5.24408Z"/>
    </symbol>

   <symbol id="exclamation" viewBox="0 0 20 20"> 
      <path fill-rule="evenodd" clip-rule="evenodd" d="M8.95898 16.4583C8.95898 17.0336 9.42535 17.5 10.0007 17.5C10.5759 17.5 11.0423 17.0336 11.0423 16.4583C11.0423 15.883 10.5759 15.4167 10.0007 15.4167C9.42535 15.4167 8.95898 15.883 8.95898 16.4583Z" fill="white"/>
      <path fill-rule="evenodd" clip-rule="evenodd" d="M10.0007 13.3333C9.54041 13.3333 9.16732 12.9602 9.16732 12.5L9.16732 3.33333C9.16732 2.8731 9.54041 2.5 10.0007 2.5C10.4609 2.5 10.834 2.8731 10.834 3.33333L10.834 12.5C10.834 12.9602 10.4609 13.3333 10.0007 13.3333Z" fill="white"/>
    </symbol>

   <symbol id="pencil" viewBox="0 0 19 19"> 
        <path fill-rule="evenodd" clip-rule="evenodd" d="M12.5291 3.30249C12.9162 3.14216 13.331 3.05964 13.75 3.05964C14.169 3.05964 14.5838 3.14216 14.9709 3.30249C15.358 3.46282 15.7097 3.69782 16.0059 3.99407C16.3022 4.29032 16.5372 4.64203 16.6975 5.0291C16.8578 5.41617 16.9404 5.83103 16.9404 6.24999C16.9404 6.66896 16.8578 7.08382 16.6975 7.47089C16.5372 7.85796 16.3022 8.20967 16.0059 8.50592L15.1738 9.33805C15.1734 9.33845 15.173 9.33885 15.1726 9.33925C15.1722 9.33965 15.1718 9.34005 15.1714 9.34045L7.25592 17.2559C7.09964 17.4122 6.88768 17.5 6.66667 17.5H3.33333C2.8731 17.5 2.5 17.1269 2.5 16.6667V13.3333C2.5 13.1123 2.5878 12.9004 2.74408 12.7441L11.4941 3.99407C11.7903 3.69782 12.142 3.46282 12.5291 3.30249ZM11.25 6.59517L4.16667 13.6785V15.8333H6.32149L13.4048 8.75L11.25 6.59517ZM14.5833 7.57149L12.4285 5.41666L12.6726 5.17258C12.8141 5.0311 12.982 4.91886 13.1669 4.84229C13.3518 4.76572 13.5499 4.72631 13.75 4.72631C13.9501 4.72631 14.1482 4.76572 14.3331 4.84229C14.518 4.91886 14.6859 5.0311 14.8274 5.17258C14.9689 5.31407 15.0811 5.48204 15.1577 5.6669C15.2343 5.85176 15.2737 6.0499 15.2737 6.24999C15.2737 6.45009 15.2343 6.64822 15.1577 6.83308C15.0811 7.01795 14.9689 7.18592 14.8274 7.32741L14.5833 7.57149Z"/>
    </symbol>

   <symbol id="cross" viewBox="0 0 20 20"> 
        <path fill-rule="evenodd" clip-rule="evenodd" d="M4.40814 4.41058C4.73358 4.08514 5.26121 4.08514 5.58665 4.41058L9.9974 8.82133L14.4081 4.41058C14.7336 4.08514 15.2612 4.08514 15.5867 4.41058C15.9121 4.73602 15.9121 5.26366 15.5867 5.58909L11.1759 9.99984L15.5867 14.4106C15.9121 14.736 15.9121 15.2637 15.5867 15.5891C15.2612 15.9145 14.7336 15.9145 14.4081 15.5891L9.9974 11.1783L5.58665 15.5891C5.26121 15.9145 4.73358 15.9145 4.40814 15.5891C4.0827 15.2637 4.0827 14.736 4.40814 14.4106L8.81888 9.99984L4.40814 5.58909C4.0827 5.26366 4.0827 4.73602 4.40814 4.41058Z"/>
    </symbol>

   <symbol id="eye" viewBox="0 0 24 24"> 
        <path fill-rule="evenodd" clip-rule="evenodd" d="M21.9878 11.7002C20.3582 7.61689 16.3881 4.95541 11.9939 5.00057C7.62899 4.97532 3.69114 7.61919 2.05997 11.6702C2.02156 11.776 2.00129 11.8876 2.00001 12.0002C1.99948 12.1065 2.01986 12.2118 2.05997 12.3102C3.68479 16.369 7.62406 19.0218 11.9939 18.9998C16.3588 19.0251 20.2967 16.3812 21.9279 12.3302C21.9706 12.2256 21.9911 12.1132 21.9878 12.0002C22.004 11.9009 22.004 11.7995 21.9878 11.7002ZM11.9939 16.9999C8.6124 16.9923 5.5333 15.0498 4.06875 12.0002C5.52824 8.94634 8.61076 7.00245 11.9939 7.00245C15.3771 7.00245 18.4596 8.94634 19.9191 12.0002C18.4545 15.0498 15.3754 16.9923 11.9939 16.9999ZM8.9958 12.0002C8.9958 10.3434 10.3381 9.00035 11.994 9.00035C13.6498 9.00035 14.9921 10.3434 14.9921 12.0002C14.9921 13.657 13.6498 15 11.994 15C10.3381 15 8.9958 13.657 8.9958 12.0002Z"/>
    </symbol>

   <symbol id="eye-cross" viewBox="0 0 24 24"> 
        <path fill-rule="evenodd" clip-rule="evenodd" d="M3.70711 2.29289C3.31658 1.90237 2.68342 1.90237 2.29289 2.29289C1.90237 2.68342 1.90237 3.31658 2.29289 3.70711L5.77595 7.19016C4.41908 8.25997 3.21193 9.70316 2.14251 11.4855C1.9525 11.8022 1.9525 12.1978 2.14251 12.5145C4.66152 16.7129 7.94268 18.9988 11.9967 19C13.5692 19.0099 15.1164 18.638 16.5073 17.9215L20.2929 21.7071C20.6834 22.0976 21.3166 22.0976 21.7071 21.7071C22.0976 21.3166 22.0976 20.6834 21.7071 20.2929L17.4597 16.0455C17.4139 15.9885 17.3627 15.9376 17.3074 15.8932L3.70711 2.29289ZM15.0021 16.4163L13.2934 14.7076C12.8933 14.8989 12.4519 15.0009 12 15.001C11.2043 15.0012 10.4412 14.6852 9.87846 14.1227C9.31574 13.5602 8.99953 12.7972 8.99939 12.0015C8.99931 11.5492 9.10137 11.1074 9.29279 10.707L7.20216 8.61637C6.1303 9.41883 5.11853 10.537 4.17707 12.0001C6.39041 15.4411 9.00116 17 12 17H12.0066C13.0383 17.0068 14.0564 16.8067 15.0021 16.4163Z"/>
        <path d="M10.3784 7.16015C10.9113 7.05227 11.4537 6.99862 11.9974 7.00003L12 7.00003C14.9988 7.00003 17.6096 8.55894 19.8229 11.9999C19.2838 12.8377 18.7203 13.5641 18.1353 14.1831C17.7559 14.5845 17.7737 15.2174 18.1751 15.5968C18.5765 15.9761 19.2094 15.9583 19.5887 15.5569C20.405 14.6934 21.1604 13.6763 21.8575 12.5145C22.0475 12.1978 22.0475 11.8022 21.8575 11.4855C19.3381 7.2865 16.0563 5.00051 12.0013 5.00003C11.323 4.99837 10.6464 5.06534 9.98159 5.19991C9.44028 5.30949 9.0903 5.83714 9.19988 6.37844C9.30946 6.91975 9.83711 7.26973 10.3784 7.16015Z"/>
    </symbol>

   <symbol id="arrow-back" viewBox="0 0 22 22"> 
        <path fill-rule="evenodd" clip-rule="evenodd" d="M8.08896 4.75596C7.76351 4.43051 7.23584 4.43051 6.91039 4.75596L3.57709 8.08927L3.50776 8.16777C3.25357 8.49468 3.27668 8.96737 3.57709 9.26778L6.91039 12.6011C7.23584 12.9265 7.76351 12.9265 8.08896 12.6011C8.41439 12.2757 8.41442 11.748 8.08902 11.4226L6.17868 9.51185H13.333L13.4799 9.5161C14.7922 9.59214 15.833 10.6805 15.833 12.0119C15.833 13.3926 14.7137 14.5119 13.333 14.5119C12.8728 14.5119 12.4997 14.8849 12.4997 15.3452C12.4997 15.8054 12.8728 16.1785 13.333 16.1785L13.5137 16.1747C15.7311 16.08 17.4997 14.2525 17.4997 12.0119C17.4997 9.71067 15.6342 7.84519 13.333 7.84519H6.17868L8.08902 5.93447C8.41442 5.60901 8.41439 5.08139 8.08896 4.75596Z"/>
    </symbol>

    <symbol id="signout" viewBox="0 0 20 20"> 
        <path fill-rule="evenodd" clip-rule="evenodd" d="M2.39892 3.23223C2.86776 2.76339 3.50365 2.5 4.16669 2.5H10C10.6631 2.5 11.2989 2.76339 11.7678 3.23223C12.2366 3.70107 12.5 4.33696 12.5 5V6.66667C12.5 7.1269 12.1269 7.5 11.6667 7.5C11.2064 7.5 10.8334 7.1269 10.8334 6.66667V5C10.8334 4.77899 10.7456 4.56702 10.5893 4.41074C10.433 4.25446 10.221 4.16667 10 4.16667H4.16669C3.94567 4.16667 3.73371 4.25446 3.57743 4.41074C3.42115 4.56702 3.33335 4.77899 3.33335 5V15C3.33335 15.221 3.42115 15.433 3.57743 15.5893C3.73371 15.7455 3.94567 15.8333 4.16669 15.8333H10C10.221 15.8333 10.433 15.7455 10.5893 15.5893C10.7456 15.433 10.8334 15.221 10.8334 15V13.3333C10.8334 12.8731 11.2064 12.5 11.6667 12.5C12.1269 12.5 12.5 12.8731 12.5 13.3333V15C12.5 15.663 12.2366 16.2989 11.7678 16.7678C11.2989 17.2366 10.6631 17.5 10 17.5H4.16669C3.50365 17.5 2.86776 17.2366 2.39892 16.7678C1.93008 16.2989 1.66669 15.663 1.66669 15V5C1.66669 4.33696 1.93008 3.70107 2.39892 3.23223ZM14.4108 6.91074C14.7362 6.58531 15.2638 6.58531 15.5893 6.91074L18.0893 9.41074C18.0908 9.41231 18.0924 9.41388 18.094 9.41546C18.2351 9.55887 18.3165 9.74481 18.331 9.93757C18.3353 9.99381 18.3338 10.0506 18.3265 10.1071C18.3062 10.2644 18.2411 10.417 18.1311 10.5443C18.1163 10.5614 18.1009 10.5779 18.0848 10.5937L15.5893 13.0893C15.2638 13.4147 14.7362 13.4147 14.4108 13.0893C14.0853 12.7638 14.0853 12.2362 14.4108 11.9107L15.4882 10.8333H7.50002C7.03978 10.8333 6.66669 10.4602 6.66669 10C6.66669 9.53976 7.03978 9.16667 7.50002 9.16667H15.4882L14.4108 8.08926C14.0853 7.76382 14.0853 7.23618 14.4108 6.91074Z"/>
    </symbol>

    <symbol id="gift" viewBox="0 0 42 42"> 
        <path d="M6.99922 12.6C6.18841 12.6 5.45924 12.988 4.95515 13.5929C4.45571 14.1922 4.19922 14.9702 4.19922 15.75V19.95C4.19922 20.7298 4.45571 21.5078 4.95515 22.1071C5.45924 22.712 6.18841 23.1 6.99922 23.1H7.34922V34.65C7.34922 36.3897 8.75952 37.8 10.4992 37.8H31.4992C33.2389 37.8 34.6492 36.3897 34.6492 34.65V23.1H34.9992C35.81 23.1 36.5392 22.712 37.0433 22.1071C37.5427 21.5078 37.7992 20.7298 37.7992 19.95V15.75C37.7992 14.9702 37.5427 14.1922 37.0433 13.5929C36.5392 12.988 35.81 12.6 34.9992 12.6H22.0492V14.7H34.9992C35.1167 14.7 35.2777 14.7545 35.43 14.9373C35.587 15.1256 35.6992 15.4159 35.6992 15.75V19.95C35.6992 20.2841 35.587 20.5744 35.43 20.7627C35.2777 20.9455 35.1167 21 34.9992 21H22.0492V23.1H32.5492V34.65C32.5492 35.2299 32.0791 35.7 31.4992 35.7H10.4992C9.91932 35.7 9.44922 35.2299 9.44922 34.65V23.1H19.9492V21H6.99922C6.88177 21 6.7207 20.9455 6.56841 20.7627C6.41147 20.5744 6.29922 20.2841 6.29922 19.95V15.75C6.29922 15.4159 6.41147 15.1256 6.56841 14.9373C6.7207 14.7545 6.88177 14.7 6.99922 14.7H19.9492V12.6H6.99922Z" fill="black"/>
        <path fill-rule="evenodd" clip-rule="evenodd" d="M13.8977 4.2C16.2534 4.2 19.0723 5.59747 20.8226 9.1326C22.573 5.59747 25.3919 4.2 27.7476 4.2C28.9787 4.2 30.183 4.62668 31.0907 5.42089C32.0028 6.21901 32.5476 7.33392 32.5476 8.53135C32.5476 9.72877 32.0028 10.8437 31.0907 11.6418C30.0641 12.5401 28.7366 12.6 27.7476 12.6H22.0478V35.7H19.9478V12.6H13.8977C12.9087 12.6 11.5811 12.5401 10.5546 11.6418C9.64246 10.8437 9.09766 9.72877 9.09766 8.53135C9.09766 7.33392 9.64246 6.21901 10.5546 5.42089C11.4622 4.62668 12.6665 4.2 13.8977 4.2ZM19.1451 10.5H13.8977C12.8975 10.5 12.3174 10.3939 11.9374 10.0614C11.443 9.62879 11.1977 9.07446 11.1977 8.53135C11.1977 7.98823 11.443 7.4339 11.9374 7.00128C12.4363 6.56474 13.1397 6.3 13.8977 6.3C15.4252 6.3 17.7208 7.24928 19.1451 10.5ZM27.7476 10.5H22.5002C23.9244 7.24928 26.22 6.3 27.7476 6.3C28.5056 6.3 29.2089 6.56474 29.7078 7.00128C30.2022 7.4339 30.4476 7.98823 30.4476 8.53135C30.4476 9.07446 30.2022 9.62879 29.7078 10.0614C29.3278 10.3939 28.7477 10.5 27.7476 10.5Z" fill="#DF0000"/>
    </symbol>

    <symbol id="newsletter" viewBox="0 0 42 42"> 
        <path fill-rule="evenodd" clip-rule="evenodd" d="M6.29922 9.45C6.29922 6.55051 8.64972 4.2 11.5492 4.2H30.4492C33.3487 4.2 35.6992 6.55051 35.6992 9.45V17.4151L37.4917 19.2075C37.6886 19.4045 37.7992 19.6715 37.7992 19.95V33.6389C37.7992 34.7851 37.2859 35.8553 36.4217 36.6236C35.5615 37.3882 34.4186 37.8 33.2492 37.8H8.74922C7.5798 37.8 6.43697 37.3882 5.57676 36.6236C4.71253 35.8553 4.19922 34.7851 4.19922 33.6389V19.95C4.19922 19.6715 4.30984 19.4045 4.50676 19.2075L6.29922 17.4151V9.45ZM8.39922 20.2284V9.45C8.39922 7.7103 9.80952 6.3 11.5492 6.3H30.4492C32.1889 6.3 33.5992 7.7103 33.5992 9.45V17.849C33.5992 17.8497 33.5992 17.8503 33.5992 17.851V20.2284L25.0312 24.123L24.4159 23.5956C22.4498 21.9104 19.5486 21.9104 17.5826 23.5956L16.9673 24.123L8.39922 20.2284ZM6.29922 21.5807L15.2087 25.6304L6.29922 33.2671V21.5807ZM7.21832 35.2451C7.64288 35.5321 8.17903 35.7 8.74922 35.7H33.2492C33.8194 35.7 34.3556 35.5321 34.7801 35.2451L23.0492 25.1901C21.8696 24.1789 20.1289 24.1789 18.9492 25.1901L7.21832 35.2451ZM35.6992 33.2671V21.5807L26.7898 25.6304L35.6992 33.2671Z" fill="black"/>
        <path fill-rule="evenodd" clip-rule="evenodd" d="M12.5977 11.55C12.5977 10.9701 13.0678 10.5 13.6477 10.5H23.0977C23.6776 10.5 24.1477 10.9701 24.1477 11.55C24.1477 12.1299 23.6776 12.6 23.0977 12.6H13.6477C13.0678 12.6 12.5977 12.1299 12.5977 11.55ZM26.2477 11.55C26.2477 10.9701 26.7178 10.5 27.2977 10.5H28.3477C28.9276 10.5 29.3977 10.9701 29.3977 11.55C29.3977 12.1299 28.9276 12.6 28.3477 12.6H27.2977C26.7178 12.6 26.2477 12.1299 26.2477 11.55ZM12.5977 16.8C12.5977 16.2201 13.0678 15.75 13.6477 15.75H28.3477C28.9276 15.75 29.3977 16.2201 29.3977 16.8C29.3977 17.3799 28.9276 17.85 28.3477 17.85H13.6477C13.0678 17.85 12.5977 17.3799 12.5977 16.8Z" fill="#DF0000"/>
    </symbol>

    <symbol id="community" viewBox="0 0 42 42"> 
        <path fill-rule="evenodd" clip-rule="evenodd" d="M17.2869 19.3877C18.2715 18.4031 19.6068 17.85 20.9992 17.85C22.3916 17.85 23.727 18.4031 24.7115 19.3877C25.6961 20.3722 26.2492 21.7076 26.2492 23.1C26.2492 24.4924 25.6961 25.8277 24.7115 26.8123C23.727 27.7969 22.3916 28.35 20.9992 28.35C19.6068 28.35 18.2715 27.7969 17.2869 26.8123C16.3023 25.8277 15.7492 24.4924 15.7492 23.1C15.7492 21.7076 16.3023 20.3722 17.2869 19.3877ZM20.9992 19.95C20.1638 19.95 19.3626 20.2819 18.7718 20.8726C18.1811 21.4633 17.8492 22.2646 17.8492 23.1C17.8492 23.9354 18.1811 24.7366 18.7718 25.3274C19.3626 25.9181 20.1638 26.25 20.9992 26.25C21.8347 26.25 22.6359 25.9181 23.2266 25.3274C23.8173 24.7366 24.1492 23.9354 24.1492 23.1C24.1492 22.2646 23.8173 21.4633 23.2266 20.8726C22.6359 20.2819 21.8347 19.95 20.9992 19.95ZM8.4256 24.1764C9.1148 23.4872 10.0495 23.1 11.0242 23.1C11.9989 23.1 12.9336 23.4872 13.6228 24.1764C14.312 24.8656 14.6992 25.8003 14.6992 26.775C14.6992 27.7497 14.312 28.6844 13.6228 29.3736C12.9336 30.0628 11.9989 30.45 11.0242 30.45C10.0495 30.45 9.1148 30.0628 8.4256 29.3736C7.7364 28.6844 7.34922 27.7497 7.34922 26.775C7.34922 25.8003 7.7364 24.8656 8.4256 24.1764ZM11.0242 25.2C10.6065 25.2 10.2059 25.3659 9.91053 25.6613C9.61516 25.9567 9.44922 26.3573 9.44922 26.775C9.44922 27.1927 9.61516 27.5933 9.91053 27.8887C10.2059 28.1841 10.6065 28.35 11.0242 28.35C11.4419 28.35 11.8425 28.1841 12.1379 27.8887C12.4333 27.5933 12.5992 27.1927 12.5992 26.775C12.5992 26.3573 12.4333 25.9567 12.1379 25.6613C11.8425 25.3659 11.4419 25.2 11.0242 25.2ZM30.9742 25.2C30.5565 25.2 30.1559 25.3659 29.8605 25.6613C29.5652 25.9567 29.3992 26.3573 29.3992 26.775C29.3992 27.1927 29.5652 27.5933 29.8605 27.8887C30.1559 28.1841 30.5565 28.35 30.9742 28.35C31.3919 28.35 31.7925 28.1841 32.0879 27.8887C32.3833 27.5933 32.5492 27.1927 32.5492 26.775C32.5492 26.3573 32.3833 25.9567 32.0879 25.6613C31.7925 25.3659 31.3919 25.2 30.9742 25.2ZM28.3756 24.1764C29.0648 23.4872 29.9995 23.1 30.9742 23.1C31.9489 23.1 32.8836 23.4872 33.5728 24.1764C34.262 24.8656 34.6492 25.8003 34.6492 26.775C34.6492 27.7497 34.262 28.6844 33.5728 29.3736C32.8836 30.0628 31.9489 30.45 30.9742 30.45C29.9995 30.45 29.0648 30.0628 28.3756 29.3736C27.6864 28.6844 27.2992 27.7497 27.2992 26.775C27.2992 25.8003 27.6864 24.8656 28.3756 24.1764ZM11.5492 36.75C11.5492 33.2706 14.3698 30.45 17.8492 30.45H24.1492C27.6286 30.45 30.4492 33.2706 30.4492 36.75C30.4492 37.3299 29.9791 37.8 29.3992 37.8C28.8193 37.8 28.3492 37.3299 28.3492 36.75C28.3492 34.4304 26.4688 32.55 24.1492 32.55H17.8492C15.5296 32.55 13.6492 34.4304 13.6492 36.75C13.6492 37.3299 13.1791 37.8 12.5992 37.8C12.0193 37.8 11.5492 37.3299 11.5492 36.75ZM4.19922 36.6187C4.19922 33.8642 6.4322 31.6312 9.18672 31.6312H9.44922C10.0291 31.6312 10.4992 32.1013 10.4992 32.6812C10.4992 33.2611 10.0291 33.7312 9.44922 33.7312H9.18672C7.592 33.7312 6.29922 35.024 6.29922 36.6187C6.29922 37.1986 5.82912 37.6687 5.24922 37.6687C4.66932 37.6687 4.19922 37.1986 4.19922 36.6187ZM31.4992 32.6812C31.4992 32.1013 31.9693 31.6312 32.5492 31.6312H32.8117C35.5662 31.6312 37.7992 33.8642 37.7992 36.6187C37.7992 37.1986 37.3291 37.6687 36.7492 37.6687C36.1693 37.6687 35.6992 37.1986 35.6992 36.6187C35.6992 35.024 34.4064 33.7312 32.8117 33.7312H32.5492C31.9693 33.7312 31.4992 33.2611 31.4992 32.6812Z" fill="black"/>
        <path fill-rule="evenodd" clip-rule="evenodd" d="M27.255 4.50753C27.665 4.91759 27.665 5.58241 27.255 5.99246L19.905 13.3425C19.708 13.5394 19.441 13.65 19.1625 13.65C18.884 13.65 18.617 13.5394 18.42 13.3425L14.745 9.66746C14.335 9.25741 14.335 8.59259 14.745 8.18253C15.1551 7.77248 15.8199 7.77248 16.23 8.18253L19.1625 11.1151L25.77 4.50753C26.1801 4.09748 26.8449 4.09748 27.255 4.50753Z" fill="#DF0000"/>
    </symbol>

    <symbol id="phone-bold" viewBox="0 0 24 24"> 
        <path fill-rule="evenodd" clip-rule="evenodd" d="M10.2296 2.51875C10.0556 2.20165 9.72096 2 9.35294 2H5.11765L4.94073 2.00494C3.30121 2.09665 2 3.45519 2 5.11765C2.55192 14.23 9.76998 21.4481 18.8217 21.9982C20.6042 22 22 20.6042 22 18.8824V14.6471L21.9926 14.5258C21.9489 14.1668 21.7131 13.8553 21.3714 13.7186L16.0773 11.6009L15.9622 11.5627C15.5366 11.4496 15.0799 11.6291 14.8484 12.0149L13.755 13.836L13.5954 13.7399C12.2483 12.8916 11.1084 11.7517 10.2601 10.4046L10.163 10.244L11.9851 9.15161L12.0851 9.08309C12.4327 8.81276 12.5662 8.34047 12.3991 7.92273L10.2814 2.62861L10.2296 2.51875ZM5.11765 4H8.676L10.226 7.874L8.30903 9.02486L8.21107 9.09175C7.83953 9.37901 7.71418 9.89382 7.92667 10.3247C9.15799 12.8213 11.1787 14.842 13.6753 16.0733L13.7846 16.1195C14.2273 16.2763 14.728 16.1029 14.9751 15.691L16.125 13.773L20 15.324V18.8824L19.9934 19.0041C19.9328 19.5641 19.4585 20 18.8824 20C10.9003 19.5131 4.48692 13.0997 3.99816 5.05699C4 4.50039 4.50039 4 5.11765 4Z" />
    </symbol>

    <symbol id="chat-bold" viewBox="0 0 24 24"> 
        <path fill-rule="evenodd" clip-rule="evenodd" d="M20 2C21.0544 2 21.9182 2.81588 21.9945 3.85074L22 4V14L21.9983 14.059L21.9933 14.1166L21.9844 14.1764L21.9736 14.2293L21.9417 14.3373L21.9151 14.4039L21.8443 14.5361L21.7803 14.6254L21.7071 14.7071L21.6129 14.7903L21.5361 14.8443L21.4398 14.8984L21.4039 14.9151L21.3373 14.9417L21.2293 14.9736L21.1764 14.9844L21.1166 14.9933L21.059 14.9983L21 15L20.941 14.9983L20.8834 14.9933L20.8236 14.9844L20.7707 14.9736L20.6627 14.9417L20.5961 14.9151L20.4639 14.8443L20.3745 14.7803L20.2929 14.7071L17.585 12H11C9.94564 12 9.08183 11.1841 9.00549 10.1493L9 10V4C9 2.94564 9.81588 2.08183 10.8507 2.00549L11 2H20ZM7 9V11H4V18.584L5.29289 17.2929C5.44917 17.1366 5.65185 17.0374 5.86856 17.0087L6 17H13V14H15V17C15 18.0544 14.1841 18.9182 13.1493 18.9945L13 19H6.414L3.70711 21.7071C3.10453 22.3097 2.09282 21.9277 2.00598 21.1136L2 21V11C2 9.94564 2.81588 9.08183 3.85074 9.00549L4 9H7ZM20 4V11.585L18.7071 10.2929L18.608 10.2061C18.4345 10.0732 18.221 10 18 10H11V4H20Z" />
    </symbol>

    <symbol id="globe-bold" viewBox="0 0 24 24"> 
        <path fill-rule="evenodd" clip-rule="evenodd" d="M12.7291 2.02659C12.615 1.99975 12.4963 1.99284 12.3786 2.00716C12.2527 2.00239 12.1265 2 12 2C11.8735 2 11.7473 2.00239 11.6214 2.00716C11.5037 1.99284 11.385 1.99975 11.2709 2.02659C8.88531 2.20089 6.6317 3.22616 4.92893 4.92893C3.05357 6.80429 2 9.34783 2 12C2 13.3132 2.25866 14.6136 2.7612 15.8268C3.26375 17.0401 4.00035 18.1425 4.92893 19.0711C5.85752 19.9997 6.95991 20.7362 8.17317 21.2388C9.1613 21.6481 10.2072 21.8956 11.2708 21.9734C11.3849 22.0002 11.5037 22.0072 11.6215 21.9928C11.7475 21.9976 11.8737 22 12 22C12.1263 22 12.2525 21.9976 12.3785 21.9928C12.4963 22.0072 12.6151 22.0002 12.7292 21.9734C13.7928 21.8956 14.8387 21.6481 15.8268 21.2388C17.0401 20.7362 18.1425 19.9997 19.0711 19.0711C19.9997 18.1425 20.7362 17.0401 21.2388 15.8268C21.7413 14.6136 22 13.3132 22 12C22 9.34783 20.9464 6.80429 19.0711 4.92893C17.3683 3.22616 15.1147 2.20089 12.7291 2.02659ZM9.6235 4.36112C8.39676 4.74281 7.26832 5.41797 6.34315 6.34314C5.84444 6.84185 5.41838 7.39961 5.07177 8H8.37227C8.65774 6.74756 9.07685 5.52746 9.6235 4.36112ZM10.4303 8C10.7798 6.64644 11.3063 5.3398 12 4.11506C12.6937 5.3398 13.2202 6.64644 13.5697 8H10.4303ZM8.03365 10H4.25401C4.08671 10.6479 4 11.3195 4 12C4 12.6762 4.08573 13.3482 4.25403 14H8.03365C7.95964 13.338 7.9222 12.6703 7.9222 12C7.9222 11.3297 7.95964 10.662 8.03365 10ZM10.0477 14C9.96439 13.3389 9.9222 12.6709 9.9222 12C9.9222 11.3291 9.96439 10.6611 10.0477 10H13.9523C14.0356 10.6611 14.0778 11.3291 14.0778 12C14.0778 12.6709 14.0356 13.3389 13.9523 14H10.0477ZM8.37227 16H5.0718C5.42061 16.6042 5.84772 17.1614 6.34315 17.6569C7.08601 18.3997 7.96793 18.989 8.93853 19.391C9.16336 19.4842 9.39192 19.5668 9.62349 19.6389C9.07685 18.4725 8.65774 17.2524 8.37227 16ZM12 19.8849C11.3063 18.6602 10.7798 17.3536 10.4303 16H13.5697C13.2202 17.3536 12.6937 18.6602 12 19.8849ZM14.3765 19.6389C14.6081 19.5668 14.8366 19.4842 15.0615 19.391C16.0321 18.989 16.914 18.3997 17.6569 17.6569C18.1523 17.1614 18.5794 16.6042 18.9282 16H15.6277C15.3423 17.2524 14.9231 18.4725 14.3765 19.6389ZM15.9663 14H19.746C19.9143 13.3482 20 12.6762 20 12C20 11.3195 19.9133 10.6479 19.746 10H15.9663C16.0404 10.662 16.0778 11.3297 16.0778 12C16.0778 12.6703 16.0404 13.338 15.9663 14ZM15.6277 8H18.9282C18.5816 7.39961 18.1556 6.84185 17.6569 6.34314C16.7317 5.41797 15.6032 4.74281 14.3765 4.36112C14.9231 5.52746 15.3423 6.74756 15.6277 8Z"/>
    </symbol>

    <symbol id="map-bold" viewBox="0 0 28 28"> 
        <path fill-rule="evenodd" clip-rule="evenodd" d="M10.5026 3.5C10.6985 3.5 10.8831 3.54828 11.0452 3.6336L17.5026 6.86117L23.9809 3.62317L25.6693 4.66667V19.8333L25.0244 20.8768L18.0454 24.3663C17.8833 24.4517 17.6986 24.5 17.5026 24.5C17.3066 24.5 17.122 24.4517 16.9598 24.3663L10.5026 21.1377L4.02435 24.3768L2.33594 23.3333V8.16667L2.98085 7.12317L9.95988 3.63366C10.122 3.54831 10.3067 3.5 10.5026 3.5ZM18.6693 21.4445L23.3359 19.1112V6.55433L18.6693 8.8877V21.4445ZM16.3359 8.8877V21.4447L11.6693 19.1122V6.55434L16.3359 8.8877ZM4.66927 8.88767L9.33594 6.55433V19.1122L4.66927 21.4445V8.88767Z" />
    </symbol>

    <symbol id="calendar-bold" viewBox="0 0 28 28"> 
        <path fill-rule="evenodd" clip-rule="evenodd" d="M19.8359 3.49998C19.8359 2.85565 19.3136 2.33331 18.6693 2.33331C18.0249 2.33331 17.5026 2.85565 17.5026 3.49998V4.66665H10.5026V3.49998C10.5026 2.85565 9.98027 2.33331 9.33594 2.33331C8.69161 2.33331 8.16927 2.85565 8.16927 3.49998V4.66665H6.1276C5.16345 4.66665 4.21512 5.00585 3.49636 5.64475C2.77312 6.28763 2.33594 7.19107 2.33594 8.16665V22.1666C2.33594 23.1422 2.77312 24.0457 3.49636 24.6885C4.21512 25.3274 5.16345 25.6666 6.1276 25.6666H21.8776C22.8418 25.6666 23.7901 25.3274 24.5089 24.6885C25.2321 24.0457 25.6693 23.1422 25.6693 22.1666V8.16665C25.6693 7.19107 25.2321 6.28763 24.5089 5.64475C23.7901 5.00585 22.8418 4.66665 21.8776 4.66665H19.8359V3.49998ZM8.16927 8.16665V6.99998H6.1276C5.69937 6.99998 5.31234 7.15244 5.04654 7.38871C4.78521 7.621 4.66927 7.90454 4.66927 8.16665L4.66927 11.6666H23.3359V8.16665C23.3359 7.90454 23.22 7.621 22.9587 7.38871C22.6929 7.15244 22.3058 6.99998 21.8776 6.99998H19.8359V8.16665C19.8359 8.81098 19.3136 9.33331 18.6693 9.33331C18.0249 9.33331 17.5026 8.81098 17.5026 8.16665V6.99998H10.5026V8.16665C10.5026 8.81098 9.98027 9.33331 9.33594 9.33331C8.69161 9.33331 8.16927 8.81098 8.16927 8.16665ZM23.3359 14H4.66927L4.66927 22.1666C4.66927 22.4287 4.78521 22.7123 5.04654 22.9446C5.31234 23.1809 5.69937 23.3333 6.1276 23.3333H21.8776C22.3058 23.3333 22.6929 23.1809 22.9587 22.9446C23.22 22.7123 23.3359 22.4287 23.3359 22.1666V14Z" />
    </symbol>

    <symbol id="paper-bold" viewBox="0 0 28 28"> 
        <path d="M10.4974 9.33331C9.85306 9.33331 9.33073 9.85565 9.33073 10.5C9.33073 11.1443 9.85306 11.6666 10.4974 11.6666H11.0807C11.7251 11.6666 12.2474 11.1443 12.2474 10.5C12.2474 9.85565 11.7251 9.33331 11.0807 9.33331H10.4974Z" />
        <path d="M9.33073 15.1666C9.33073 14.5223 9.85306 14 10.4974 14H17.4974C18.1417 14 18.6641 14.5223 18.6641 15.1666C18.6641 15.811 18.1417 16.3333 17.4974 16.3333H10.4974C9.85306 16.3333 9.33073 15.811 9.33073 15.1666Z" />
        <path d="M10.4974 18.6666C9.85306 18.6666 9.33073 19.189 9.33073 19.8333C9.33073 20.4776 9.85306 21 10.4974 21H17.4974C18.1417 21 18.6641 20.4776 18.6641 19.8333C18.6641 19.189 18.1417 18.6666 17.4974 18.6666H10.4974Z" />
        <path fill-rule="evenodd" clip-rule="evenodd" d="M23.3307 22.1666V9.33331C23.3307 9.02389 23.2078 8.72715 22.989 8.50836L17.1557 2.67502C16.9369 2.45623 16.6402 2.33331 16.3307 2.33331H8.16406C7.23581 2.33331 6.34557 2.70206 5.68919 3.35844C5.03281 4.01482 4.66406 4.90506 4.66406 5.83331V22.1666C4.66406 23.0949 5.03281 23.9851 5.68919 24.6415C6.34557 25.2979 7.2358 25.6666 8.16406 25.6666H19.8307C20.759 25.6666 21.6492 25.2979 22.3056 24.6415C22.962 23.9851 23.3307 23.0949 23.3307 22.1666ZM8.16406 4.66665C7.85464 4.66665 7.5579 4.78956 7.3391 5.00835C7.12031 5.22715 6.9974 5.52389 6.9974 5.83331V22.1666C6.9974 22.4761 7.12031 22.7728 7.3391 22.9916C7.5579 23.2104 7.85464 23.3333 8.16406 23.3333H19.8307C20.1401 23.3333 20.4369 23.2104 20.6557 22.9916C20.8745 22.7728 20.9974 22.4761 20.9974 22.1666V11.6666H16.5641C15.8833 11.6666 15.2305 11.3962 14.7492 10.9149C14.2678 10.4335 13.9974 9.7807 13.9974 9.09998V4.66665H8.16406ZM16.5641 9.33331H20.5141L16.3307 5.14989V9.09998C16.3307 9.16186 16.3553 9.22121 16.3991 9.26497C16.4428 9.30873 16.5022 9.33331 16.5641 9.33331Z" />
    </symbol>

    <symbol id="settings-bold" viewBox="0 0 28 28"> 
        <path fill-rule="evenodd" clip-rule="evenodd" d="M9.64992 5.28211C10.1416 5.58103 10.7753 5.31841 10.9107 4.76143C11.6961 1.52394 16.3012 1.52394 17.0866 4.76143C17.1502 5.0239 17.3351 5.23995 17.5843 5.34319C17.8335 5.44643 18.117 5.42445 18.3477 5.28381C21.1924 3.55081 24.4486 6.80625 22.716 9.65204C22.5758 9.88225 22.5539 10.1655 22.657 10.4146C22.7601 10.6636 22.9759 10.8485 23.2372 10.912C26.4747 11.6974 26.4747 16.3025 23.2369 17.088C22.9747 17.1515 22.7587 17.3364 22.6554 17.5856C22.5522 17.8348 22.5742 18.1183 22.7148 18.349C24.4478 21.1937 21.1924 24.4499 18.3466 22.7174C18.1164 22.5772 17.8331 22.5552 17.5841 22.6583C17.335 22.7615 17.1501 22.9772 17.0866 23.2385C16.3012 26.476 11.6961 26.476 10.9106 23.2382C10.8471 22.9761 10.6622 22.76 10.413 22.6568C10.1638 22.5535 9.88031 22.5755 9.64963 22.7162C6.80494 24.4491 3.54873 21.1937 5.28127 18.3479C5.42149 18.1177 5.44342 17.8344 5.3403 17.5854C5.23718 17.3363 5.02139 17.1515 4.76011 17.0879C1.52262 16.3025 1.52262 11.6974 4.76043 10.912C5.02258 10.8484 5.23863 10.6635 5.34187 10.4143C5.44511 10.1651 5.42313 9.88163 5.28248 9.65095C3.54949 6.80627 6.80492 3.55005 9.64992 5.28211ZM16.6912 7.49884C15.7536 7.1104 15.0579 6.29753 14.819 5.31121L14.778 5.18291C14.4845 4.45407 13.3759 4.49697 13.1781 5.31215C12.6694 7.40406 10.2784 8.39497 8.43714 7.2755C7.68047 6.81483 6.81457 7.68094 7.27494 8.43664C7.80326 9.30314 7.88596 10.3699 7.49752 11.3074C7.10908 12.245 6.29621 12.9407 5.31021 13.1796C4.45036 13.3882 4.45036 14.6118 5.31084 14.8205C6.29626 15.0602 7.10814 15.7557 7.49612 16.6927C7.8841 17.6297 7.8016 18.6956 7.27417 19.5615L7.22149 19.6607C6.88861 20.391 7.71248 21.1641 8.43531 20.7237C9.30181 20.1954 10.3685 20.1127 11.3061 20.5011C12.2437 20.8896 12.9394 21.7024 13.1783 22.6884C13.3869 23.5483 14.6104 23.5483 14.8192 22.6878C15.0588 21.7024 15.7544 20.8905 16.6914 20.5025C17.6284 20.1145 18.6943 20.197 19.5602 20.7245L19.6594 20.7771C20.3896 21.11 21.1627 20.2862 20.7224 19.5633C20.1941 18.6968 20.1114 17.6301 20.4998 16.6925C20.8882 15.7549 21.7011 15.0593 22.6871 14.8204C23.547 14.6118 23.547 13.3882 22.6865 13.1794C21.7011 12.9398 20.8892 12.2442 20.5012 11.3073C20.1132 10.3703 20.1957 9.30437 20.7231 8.43846L20.7758 8.33926C21.1087 7.60901 20.2848 6.83591 19.562 7.27626C18.6955 7.80458 17.6288 7.88728 16.6912 7.49884ZM13.9987 9.33331C11.4213 9.33331 9.33199 11.4227 9.33199 14C9.33199 16.5773 11.4213 18.6666 13.9987 18.6666C16.576 18.6666 18.6653 16.5773 18.6653 14C18.6653 11.4227 16.576 9.33331 13.9987 9.33331ZM16.332 14C16.332 12.7113 15.2873 11.6666 13.9987 11.6666C12.71 11.6666 11.6653 12.7113 11.6653 14C11.6653 15.2886 12.71 16.3333 13.9987 16.3333C15.2873 16.3333 16.332 15.2886 16.332 14Z" />
    </symbol>

    <symbol id="chat-bold" viewBox="0 0 28 28"> 
        <path fill-rule="evenodd" clip-rule="evenodd" d="M8.23739 3.57201C9.03051 2.77888 10.1062 2.33331 11.2279 2.33331H21.4362C22.5578 2.33331 23.6335 2.77888 24.4267 3.57201C25.2198 4.36513 25.6654 5.44083 25.6654 6.56248V21C25.6654 21.4719 25.3811 21.8973 24.9452 22.0778C24.5092 22.2584 24.0074 22.1586 23.6737 21.8249L19.9321 18.0833H11.2279C10.1062 18.0833 9.03051 17.6377 8.23739 16.8446C7.44427 16.0515 6.9987 14.9758 6.9987 13.8541V6.56248C6.9987 5.44083 7.44427 4.36513 8.23739 3.57201ZM11.2279 4.66665C10.7251 4.66665 10.2428 4.86639 9.88731 5.22192C9.53177 5.57746 9.33203 6.05967 9.33203 6.56248V13.8541C9.33203 14.357 9.53177 14.8392 9.88731 15.1947C10.2428 15.5502 10.7251 15.75 11.2279 15.75H20.4154C20.7248 15.75 21.0215 15.8729 21.2403 16.0917L23.332 18.1834V6.56248C23.332 6.05967 23.1323 5.57746 22.7768 5.22192C22.4212 4.86639 21.939 4.66665 21.4362 4.66665H11.2279ZM12.8204 8.16665C12.8204 7.52231 13.3427 6.99998 13.987 6.99998H13.9987C14.643 6.99998 15.1654 7.52231 15.1654 8.16665C15.1654 8.81098 14.643 9.33331 13.9987 9.33331H13.987C13.3427 9.33331 12.8204 8.81098 12.8204 8.16665ZM17.487 8.16665C17.487 7.52231 18.0094 6.99998 18.6537 6.99998H18.6654C19.3097 6.99998 19.832 7.52231 19.832 8.16665C19.832 8.81098 19.3097 9.33331 18.6654 9.33331H18.6537C18.0094 9.33331 17.487 8.81098 17.487 8.16665ZM13.2576 10.7656C13.7552 10.3563 14.4904 10.4279 14.8997 10.9255C15.3171 11.4329 15.8408 11.6666 16.332 11.6666C16.8233 11.6666 17.347 11.4329 17.7643 10.9255C18.1736 10.4279 18.9088 10.3563 19.4065 10.7656C19.9041 11.1749 19.9757 11.9101 19.5664 12.4078C18.7555 13.3937 17.5955 14 16.332 14C15.0686 14 13.9086 13.3937 13.0977 12.4078C12.6884 11.9101 12.76 11.1749 13.2576 10.7656Z" />
        <path fill-rule="evenodd" clip-rule="evenodd" d="M3.01545 11.1834C3.45303 10.7458 4.04653 10.5 4.66536 10.5C5.3097 10.5 5.83203 11.0223 5.83203 11.6666C5.83203 12.311 5.3097 12.8333 4.66536 12.8333V21.6834L6.17374 20.175C6.39253 19.9562 6.68928 19.8333 6.9987 19.8333H15.1654C15.621 19.3777 16.3597 19.3777 16.8153 19.8333C17.2709 20.2889 17.2709 21.0276 16.8153 21.4832C16.3777 21.9208 15.7842 22.1666 15.1654 22.1666H7.48195L4.32366 25.3249C3.98999 25.6586 3.48819 25.7584 3.05223 25.5778C2.61628 25.3973 2.33203 24.9719 2.33203 24.5V12.8333C2.33203 12.2145 2.57786 11.621 3.01545 11.1834Z" />
    </symbol>
    
    <symbol id="globe-plus" viewBox="0 0 31 31"> 
        <path fill-rule="evenodd" clip-rule="evenodd" d="M21.7291 11.0266C21.615 10.9998 21.4963 10.9928 21.3786 11.0072C21.2527 11.0024 21.1265 11 21 11C20.8735 11 20.7473 11.0024 20.6214 11.0072C20.5037 10.9928 20.385 10.9998 20.2709 11.0266C17.8853 11.2009 15.6317 12.2262 13.9289 13.9289C12.0536 15.8043 11 18.3478 11 21C11 22.3132 11.2587 23.6136 11.7612 24.8268C12.2638 26.0401 13.0003 27.1425 13.9289 28.0711C14.8575 28.9997 15.9599 29.7362 17.1732 30.2388C18.1613 30.6481 19.2072 30.8956 20.2708 30.9734C20.3849 31.0002 20.5037 31.0072 20.6215 30.9928C20.7475 30.9976 20.8737 31 21 31C21.1263 31 21.2525 30.9976 21.3785 30.9928C21.4963 31.0072 21.6151 31.0002 21.7292 30.9734C22.7928 30.8956 23.8387 30.6481 24.8268 30.2388C26.0401 29.7362 27.1425 28.9997 28.0711 28.0711C28.9997 27.1425 29.7362 26.0401 30.2388 24.8268C30.7413 23.6136 31 22.3132 31 21C31 18.3478 29.9464 15.8043 28.0711 13.9289C26.3683 12.2262 24.1147 11.2009 21.7291 11.0266ZM18.6235 13.3611C17.3968 13.7428 16.2683 14.418 15.3431 15.3431C14.8444 15.8418 14.4184 16.3996 14.0718 17H17.3723C17.6577 15.7476 18.0769 14.5275 18.6235 13.3611ZM19.4303 17C19.7798 15.6464 20.3063 14.3398 21 13.1151C21.6937 14.3398 22.2202 15.6464 22.5697 17H19.4303ZM17.0337 19H13.254C13.0867 19.6479 13 20.3195 13 21C13 21.6762 13.0857 22.3482 13.254 23H17.0337C16.9596 22.338 16.9222 21.6703 16.9222 21C16.9222 20.3297 16.9596 19.662 17.0337 19ZM19.0477 23C18.9644 22.3389 18.9222 21.6709 18.9222 21C18.9222 20.3291 18.9644 19.6611 19.0477 19H22.9523C23.0356 19.6611 23.0778 20.3291 23.0778 21C23.0778 21.6709 23.0356 22.3389 22.9523 23H19.0477ZM17.3723 25H14.0718C14.4206 25.6042 14.8477 26.1614 15.3431 26.6569C16.086 27.3997 16.9679 27.989 17.9385 28.391C18.1634 28.4842 18.3919 28.5668 18.6235 28.6389C18.0769 27.4725 17.6577 26.2524 17.3723 25ZM21 28.8849C20.3063 27.6602 19.7798 26.3536 19.4303 25H22.5697C22.2202 26.3536 21.6937 27.6602 21 28.8849ZM23.3765 28.6389C23.6081 28.5668 23.8366 28.4842 24.0615 28.391C25.0321 27.989 25.914 27.3997 26.6569 26.6569C27.1523 26.1614 27.5794 25.6042 27.9282 25H24.6277C24.3423 26.2524 23.9231 27.4725 23.3765 28.6389ZM24.9663 23H28.746C28.9143 22.3482 29 21.6762 29 21C29 20.3195 28.9133 19.6479 28.746 19H24.9663C25.0404 19.662 25.0778 20.3297 25.0778 21C25.0778 21.6703 25.0404 22.338 24.9663 23ZM24.6277 17H27.9282C27.5816 16.3996 27.1556 15.8418 26.6569 15.3431C25.7317 14.418 24.6032 13.7428 23.3765 13.3611C23.9231 14.5275 24.3423 15.7476 24.6277 17Z"  stroke="white" stroke-linecap="round" stroke-linejoin="round"/>
        <circle cx="12" cy="12" r="9" fill="none"/>
        <path fill-rule="evenodd" clip-rule="evenodd" d="M12 4C12.5523 4 13 4.44772 13 5V11H19C19.5523 11 20 11.4477 20 12C20 12.5523 19.5523 13 19 13H13V19C13 19.5523 12.5523 20 12 20C11.4477 20 11 19.5523 11 19V13H5C4.44772 13 4 12.5523 4 12C4 11.4477 4.44772 11 5 11H11V5C11 4.44772 11.4477 4 12 4Z"  stroke="white" stroke-linecap="round" stroke-linejoin="round"/>
    </symbol>

    <symbol id="phone-plus" viewBox="0 0 33 33"> 
        <path fill-rule="evenodd" clip-rule="evenodd" d="M22.7704 11.5188C22.9444 11.2017 23.279 11 23.6471 11H27.8824L28.0593 11.0049C29.6988 11.0967 31 12.4552 31 14.1176C30.4481 23.23 23.23 30.4481 14.1783 30.9982C12.3958 31 11 29.6042 11 27.8824V23.6471L11.0074 23.5258C11.0511 23.1668 11.2869 22.8553 11.6286 22.7186L16.9227 20.6009L17.0378 20.5627C17.4634 20.4496 17.9201 20.6291 18.1516 21.0149L19.245 22.836L19.4046 22.7399C20.7517 21.8916 21.8916 20.7517 22.7399 19.4046L22.837 19.244L21.0149 18.1516L20.9149 18.0831C20.5673 17.8128 20.4338 17.3405 20.6009 16.9227L22.7186 11.6286L22.7704 11.5188ZM27.8824 13H24.324L22.774 16.874L24.691 18.0249L24.7889 18.0918C25.1605 18.379 25.2858 18.8938 25.0733 19.3247C23.842 21.8213 21.8213 23.842 19.3247 25.0733L19.2154 25.1195C18.7727 25.2763 18.272 25.1029 18.0249 24.691L16.875 22.773L13 24.324V27.8824L13.0066 28.0041C13.0672 28.5641 13.5415 29 14.1176 29C22.0997 28.5131 28.5131 22.0997 29.0018 14.057C29 13.5004 28.4996 13 27.8824 13Z" fill="#616161"/>
        <path d="M22.7704 11.5188L22.3183 11.3053L22.3248 11.2916L22.3321 11.2783L22.7704 11.5188ZM27.8824 11V10.4998L27.8963 10.5002L27.8824 11ZM28.0593 11.0049L28.0732 10.5049L28.0872 10.5057L28.0593 11.0049ZM31 14.1176H31.5V14.1328L31.4991 14.1479L31 14.1176ZM14.1783 30.9982L14.2086 31.4972L14.1937 31.4981L14.1788 31.4982L14.1783 30.9982ZM11 23.6471H10.5V23.6319L10.5009 23.6168L11 23.6471ZM11.0074 23.5258L10.5083 23.4955L10.5092 23.4804L10.511 23.4653L11.0074 23.5258ZM16.9227 20.6009L16.737 20.1367L16.751 20.1311L16.7653 20.1264L16.9227 20.6009ZM17.0378 20.5627L16.8804 20.0882L16.8947 20.0834L16.9093 20.0795L17.0378 20.5627ZM18.1516 21.0149L17.7229 21.2723L17.7229 21.2722L18.1516 21.0149ZM19.245 22.836L19.5028 23.2644L19.074 23.5225L18.8163 23.0934L19.245 22.836ZM19.4046 22.7399L19.6712 23.1631L19.6625 23.1683L19.4046 22.7399ZM22.7399 19.4046L23.1679 19.6633L23.163 19.6711L22.7399 19.4046ZM22.837 19.244L23.0941 18.8152L23.5244 19.0732L23.2649 19.5026L22.837 19.244ZM21.0149 18.1516L20.7578 18.5804L20.7448 18.5727L20.7324 18.5641L21.0149 18.1516ZM20.9149 18.0831L20.6323 18.4956L20.6199 18.4871L20.6079 18.4778L20.9149 18.0831ZM20.6009 16.9227L20.1367 16.737L20.6009 16.9227ZM22.7186 11.6286L22.2543 11.4429L22.26 11.4289L22.2664 11.4152L22.7186 11.6286ZM24.324 13L23.8598 12.8143L23.9855 12.5H24.324V13ZM22.774 16.874L22.5166 17.3027L22.1516 17.0835L22.3098 16.6883L22.774 16.874ZM24.691 18.0249L24.9483 17.5962L24.9609 17.6037L24.9729 17.6119L24.691 18.0249ZM24.7889 18.0918L25.0709 17.6788L25.0831 17.6872L25.0948 17.6962L24.7889 18.0918ZM25.0733 19.3247L24.6249 19.1035L25.0733 19.3247ZM19.3247 25.0733L19.5458 25.5218L19.5327 25.5283L19.5191 25.534L19.3247 25.0733ZM19.2154 25.1195L19.4099 25.5801L19.3963 25.5858L19.3823 25.5908L19.2154 25.1195ZM18.0249 24.691L17.5961 24.9482L17.596 24.9481L18.0249 24.691ZM16.875 22.773L16.6892 22.3088L17.0848 22.1505L17.3038 22.5159L16.875 22.773ZM13 24.324H12.5V23.9856L12.8142 23.8598L13 24.324ZM13 27.8824L12.5007 27.9092L12.5 27.8958V27.8824H13ZM13.0066 28.0041L12.5095 28.058L12.508 28.0445L12.5073 28.031L13.0066 28.0041ZM14.1176 29L14.1481 29.4991L14.1329 29.5H14.1176V29ZM29.0018 14.057L29.5018 14.0553L29.5019 14.0713L29.5009 14.0873L29.0018 14.057ZM23.6471 11.5C23.4632 11.5 23.2957 11.6008 23.2088 11.7592L22.3321 11.2783C22.5931 10.8025 23.0949 10.5 23.6471 10.5V11.5ZM27.8824 11.5H23.6471V10.5H27.8824V11.5ZM28.0453 11.5047L27.8684 11.4998L27.8963 10.5002L28.0732 10.5051L28.0453 11.5047ZM30.5 14.1176C30.5 12.722 29.4075 11.5811 28.0313 11.5042L28.0872 10.5057C29.9901 10.6122 31.5 12.1884 31.5 14.1176H30.5ZM14.148 30.4991C22.9464 29.9644 29.9642 22.9485 30.5009 14.0874L31.4991 14.1479C30.9319 23.5116 23.5136 30.9318 14.2086 31.4972L14.148 30.4991ZM11.5 27.8824C11.5 29.3219 12.6656 30.4997 14.1778 30.4982L14.1788 31.4982C12.126 31.5003 10.5 29.8865 10.5 27.8824H11.5ZM11.5 23.6471V27.8824H10.5V23.6471H11.5ZM11.5064 23.5561L11.4991 23.6773L10.5009 23.6168L10.5083 23.4955L11.5064 23.5561ZM11.8143 23.1828C11.6436 23.2511 11.5255 23.4069 11.5037 23.5863L10.511 23.4653C10.5767 22.9267 10.9303 22.4594 11.4429 22.2543L11.8143 23.1828ZM17.1084 21.0652L11.8143 23.1828L11.4429 22.2543L16.737 20.1367L17.1084 21.0652ZM17.1953 21.0373L17.0802 21.0755L16.7653 20.1264L16.8804 20.0882L17.1953 21.0373ZM17.7229 21.2722C17.6072 21.0795 17.3788 20.9895 17.1663 21.046L16.9093 20.0795C17.5479 19.9097 18.233 20.1788 18.5804 20.7577L17.7229 21.2722ZM18.8163 23.0934L17.7229 21.2723L18.5803 20.7575L19.6737 22.5786L18.8163 23.0934ZM19.6625 23.1683L19.5028 23.2644L18.9872 22.4076L19.1468 22.3115L19.6625 23.1683ZM23.163 19.6711C22.2748 21.0814 21.0814 22.2748 19.6711 23.163L19.1382 22.3168C20.422 21.5084 21.5084 20.422 22.3168 19.1382L23.163 19.6711ZM23.2649 19.5026L23.1679 19.6632L22.312 19.1461L22.4091 18.9854L23.2649 19.5026ZM21.272 17.7228L23.0941 18.8152L22.5799 19.6728L20.7578 18.5804L21.272 17.7228ZM21.1974 17.6706L21.2975 17.7391L20.7324 18.5641L20.6323 18.4956L21.1974 17.6706ZM21.0652 17.1084C20.9817 17.3171 21.0483 17.5534 21.2218 17.6884L20.6079 18.4778C20.0863 18.0721 19.886 17.3638 20.1367 16.737L21.0652 17.1084ZM23.1828 11.8143L21.0652 17.1084L20.1367 16.737L22.2543 11.4429L23.1828 11.8143ZM23.2226 11.7322L23.1707 11.8421L22.2664 11.4152L22.3183 11.3053L23.2226 11.7322ZM24.324 12.5H27.8824V13.5H24.324V12.5ZM22.3098 16.6883L23.8598 12.8143L24.7882 13.1857L23.2382 17.0597L22.3098 16.6883ZM24.4336 18.4535L22.5166 17.3027L23.0314 16.4453L24.9483 17.5962L24.4336 18.4535ZM24.507 18.5047L24.409 18.4378L24.9729 17.6119L25.0709 17.6788L24.507 18.5047ZM24.6249 19.1035C24.731 18.8883 24.6686 18.6307 24.4831 18.4873L25.0948 17.6962C25.6524 18.1273 25.8406 18.8993 25.5218 19.5458L24.6249 19.1035ZM19.1035 24.6249C21.5015 23.4423 23.4423 21.5015 24.6249 19.1035L25.5218 19.5458C24.2418 22.1412 22.1412 24.2418 19.5458 25.5218L19.1035 24.6249ZM19.0209 24.6588L19.1302 24.6127L19.5191 25.534L19.4099 25.5801L19.0209 24.6588ZM18.4536 24.4337C18.577 24.6394 18.8275 24.7264 19.0484 24.6482L19.3823 25.5908C18.7179 25.8261 17.967 25.5664 17.5961 24.9482L18.4536 24.4337ZM17.3038 22.5159L18.4537 24.4339L17.596 24.9481L16.4462 23.0301L17.3038 22.5159ZM12.8142 23.8598L16.6892 22.3088L17.0608 23.2372L13.1858 24.7882L12.8142 23.8598ZM12.5 27.8824V24.324H13.5V27.8824H12.5ZM12.5073 28.031L12.5007 27.9092L13.4993 27.8555L13.5058 27.9772L12.5073 28.031ZM14.1176 29.5C13.2835 29.5 12.5974 28.869 12.5095 28.058L13.5036 27.9503C13.5371 28.2592 13.7996 28.5 14.1176 28.5V29.5ZM29.5009 14.0873C28.9969 22.3811 22.3834 28.9967 14.1481 29.4991L14.0872 28.5009C21.8159 28.0295 28.0293 21.8182 28.5028 14.0267L29.5009 14.0873ZM27.8824 12.5C28.758 12.5 29.499 13.2064 29.5018 14.0553L28.5018 14.0586C28.501 13.7943 28.2412 13.5 27.8824 13.5V12.5Z" fill="white"/>
        <circle cx="12" cy="12" r="9" fill="white"/>
        <path fill-rule="evenodd" clip-rule="evenodd" d="M12 4C12.5523 4 13 4.44772 13 5V11H19C19.5523 11 20 11.4477 20 12C20 12.5523 19.5523 13 19 13H13V19C13 19.5523 12.5523 20 12 20C11.4477 20 11 19.5523 11 19V13H5C4.44772 13 4 12.5523 4 12C4 11.4477 4.44772 11 5 11H11V5C11 4.44772 11.4477 4 12 4Z" fill="#616161" stroke="white" stroke-linecap="round" stroke-linejoin="round"/>
    </symbol>

    <symbol id="pointer-top" viewBox="0 0 20 20"> 
        <path fill-rule="evenodd" clip-rule="evenodd" d="M15.834 8.09411C16.1595 8.41956 16.1595 8.94721 15.834 9.27266C15.5086 9.59809 14.981 9.59811 14.6555 9.27269L10.8341 5.4517L10.8341 18.4393C10.8341 18.8995 10.461 19.2726 10.0007 19.2726C9.54049 19.2726 9.16739 18.8995 9.16739 18.4393L9.16739 5.4517L5.34592 9.27269C5.02047 9.59811 4.49284 9.59809 4.16741 9.27266C3.84196 8.94721 3.84196 8.41956 4.16741 8.09411L9.41147 2.85005L9.48997 2.78073C9.81688 2.52654 10.2896 2.54965 10.59 2.85005L15.834 8.09411Z"/>
    </symbol>

    <symbol id="arrow-small" viewBox="0 0 20 20"> 
        <path d="M9.67969 4.66589L10.1953 5.18152C10.4062 5.41589 10.4062 5.76746 10.1953 5.97839L5.64844 10.5253C5.41406 10.7596 5.0625 10.7596 4.85156 10.5253L0.28125 5.97839C0.0703125 5.76746 0.0703125 5.39246 0.28125 5.18152L0.796875 4.66589C1.03125 4.43152 1.38281 4.45496 1.61719 4.66589L4.3125 7.50183V0.751831C4.3125 0.447144 4.54688 0.189331 4.875 0.189331H5.625C5.92969 0.189331 6.1875 0.447144 6.1875 0.751831V7.50183L8.85938 4.66589C9.09375 4.45496 9.44531 4.43152 9.67969 4.66589Z" />
    </symbol>

    <symbol id="sim" viewBox="0 0 39 28"> 
        <path d="M0 6.13193C0 2.00791 3.27948 0 7.32492 0L8.97565 0L8.97565 6.74932L0 6.74932L0 6.13193Z" fill="white"/>
        <path d="M0 13.1853L0 8.12808L9.95928 8.12808C11.4872 8.12808 12.7257 9.39073 12.7257 10.9483V13.1853L0 13.1853Z" fill="white"/>
        <path d="M0 19.6212L0 14.564L12.7257 14.564L12.7257 16.801C12.7257 18.3586 11.4872 19.6212 9.95928 19.6212H0Z" fill="white"/>
        <path d="M0 21.8681L0 21H8.97565L8.97565 28H7.32493C3.27949 28 0 25.9921 0 21.8681Z" fill="white"/>
        <path d="M28.6104 28L10.3281 28L10.3281 20.9834C12.1629 20.8174 13.6518 19.425 14.0008 17.6158H24.9992C25.3443 19.4048 26.8039 20.7862 28.6104 20.9774V28Z" fill="white"/>
        <path d="M31.6751 28H29.9629V21L39 21V21.8681C39 25.9921 35.7205 28 31.6751 28Z" fill="white"/>
        <path d="M39 14.5014V19.6212L29.0407 19.6212C27.5128 19.6212 26.2743 18.3586 26.2743 16.801V14.5014L39 14.5014Z" fill="white"/>
        <path d="M39 8.12808V13.1226L26.2743 13.1226L26.2743 10.9483C26.2743 9.39073 27.5128 8.12808 29.0407 8.12808L39 8.12808Z" fill="white"/>
        <path d="M39 6.13194V6.74932L30.0244 6.74932V0L31.6751 0C35.7205 0 39 2.00792 39 6.13194Z" fill="white"/>
        <path d="M10.3281 0L28.6719 0V6.76592C26.7532 6.9395 25.2128 8.45417 24.9586 10.3842L14.0414 10.3842C13.7872 8.45417 12.2468 6.9395 10.3281 6.76592L10.3281 0Z" fill="white"/>
        <path d="M14.0782 16.237H24.9218V11.763L14.0782 11.763V16.237Z" fill="white"/>
    </symbol>

    <symbol id="mobile-menu" viewBox="0 0 32 32"> 
        <g clip-path="url(#clip0_6466_26590)">
        <path fill-rule="evenodd" clip-rule="evenodd" d="M4 7.99999C4 7.26361 4.59695 6.66666 5.33333 6.66666H26.6667C27.403 6.66666 28 7.26361 28 7.99999C28 8.73637 27.403 9.33332 26.6667 9.33332H5.33333C4.59695 9.33332 4 8.73637 4 7.99999ZM4 16C4 15.2636 4.59695 14.6667 5.33333 14.6667H26.6667C27.403 14.6667 28 15.2636 28 16C28 16.7364 27.403 17.3333 26.6667 17.3333H5.33333C4.59695 17.3333 4 16.7364 4 16ZM4 24C4 23.2636 4.59695 22.6667 5.33333 22.6667H26.6667C27.403 22.6667 28 23.2636 28 24C28 24.7364 27.403 25.3333 26.6667 25.3333H5.33333C4.59695 25.3333 4 24.7364 4 24Z" fill="white"/>
        </g>
        <defs>
        <clipPath id="clip0_6466_26590">
        <rect width="32" height="32" rx="16" fill="white"/>
        </clipPath>
        </defs>
    </symbol>

    <symbol id="simlarge" viewBox="0 0 48 48">
        <path fill-rule="evenodd" clip-rule="evenodd" d="M18.9724 5.52129C19.4239 5.06 20.0421 4.8 20.6876 4.8H33C36.3137 4.8 39 7.48629 39 10.8V39.6C39 41.5882 37.3882 43.2 35.4 43.2H12.6C10.6118 43.2 9 41.5882 9 39.6V16.6895C9 16.0619 9.24582 15.4593 9.68479 15.0108L18.9724 5.52129ZM33 7.2H20.6876L11.4 16.6895V39.6C11.4 40.2627 11.9373 40.8 12.6 40.8H35.4C36.0627 40.8 36.6 40.2627 36.6 39.6V10.8C36.6 8.81178 34.9882 7.2 33 7.2Z" fill="black"/>
        <path fill-rule="evenodd" clip-rule="evenodd" d="M27 19.5002C27 17.8433 25.6569 16.5002 24 16.5002L16 16.5002C14.3431 16.5002 13 17.8433 13 19.5002L13 23.5002C13 24.0525 13.4477 24.5002 14 24.5002C14.5523 24.5002 15 24.0525 15 23.5002L15 19.5002C15 18.9479 15.4477 18.5002 16 18.5002L24 18.5002C24.5523 18.5002 25 18.9479 25 19.5002C25 20.0525 24.5523 20.5002 24 20.5002L18.0115 20.5003C18.0077 20.5002 18.0038 20.5002 18 20.5002C17.4477 20.5002 17 20.9479 17 21.5002C17 21.5002 17 21.5002 17 21.5002L17.0001 24.5002H16C14.3431 24.5002 13 25.8433 13 27.5002C13 29.1571 14.3431 30.5002 16 30.5002L24 30.5002C25.6569 30.5002 27 29.1571 27 27.5002V23.5002C27 22.9479 26.5523 22.5002 26 22.5002C25.4477 22.5002 25 22.9479 25 23.5002V27.5002C25 28.0525 24.5523 28.5002 24 28.5002L16 28.5002C15.4477 28.5002 15 28.0525 15 27.5002C15 26.9479 15.4477 26.5002 16 26.5002H17.9885L18 26.5003L22 26.5002C22.0345 26.5002 22.0687 26.4984 22.1022 26.495C22.6065 26.4439 23.0001 26.018 23.0001 25.5002L23 22.5002H24C25.6569 22.5002 27 21.1571 27 19.5002ZM19.0001 24.5002L19 22.5002L21 22.5002L21 24.5002L19.0001 24.5002Z" fill="#DF0000"/>
    </symbol>

    <symbol id="close" viewBox="0 0 20 20">
        <path fill-rule="evenodd" clip-rule="evenodd" d="M4.41205 4.41058C4.73748 4.08514 5.26512 4.08514 5.59056 4.41058L10.0013 8.82133L14.412 4.41058C14.7375 4.08514 15.2651 4.08514 15.5906 4.41058C15.916 4.73602 15.916 5.26366 15.5906 5.58909L11.1798 9.99984L15.5906 14.4106C15.916 14.736 15.916 15.2637 15.5906 15.5891C15.2651 15.9145 14.7375 15.9145 14.412 15.5891L10.0013 11.1783L5.59056 15.5891C5.26512 15.9145 4.73748 15.9145 4.41205 15.5891C4.08661 15.2637 4.08661 14.736 4.41205 14.4106L8.82279 9.99984L4.41205 5.58909C4.08661 5.26366 4.08661 4.73602 4.41205 4.41058Z" fill="#3A3A3A"/>
    </symbol>

    <symbol id="service-helpful-bold" viewBox="0 0 28 28">
        <path fill-rule="evenodd" clip-rule="evenodd" d="M8.23935 3.57201C9.03247 2.77888 10.1082 2.33331 11.2298 2.33331H21.4382C22.5598 2.33331 23.6355 2.77888 24.4286 3.57201C25.2217 4.36513 25.6673 5.44083 25.6673 6.56248V21C25.6673 21.4719 25.3831 21.8973 24.9471 22.0778C24.5112 22.2584 24.0094 22.1586 23.6757 21.8249L19.9341 18.0833H11.2298C10.1082 18.0833 9.03247 17.6377 8.23935 16.8446C7.44622 16.0515 7.00065 14.9758 7.00065 13.8541V6.56248C7.00065 5.44083 7.44622 4.36513 8.23935 3.57201ZM11.2298 4.66665C10.727 4.66665 10.2448 4.86639 9.88926 5.22192C9.53372 5.57746 9.33398 6.05967 9.33398 6.56248V13.8541C9.33398 14.357 9.53372 14.8392 9.88926 15.1947C10.2448 15.5502 10.727 15.75 11.2298 15.75H20.4173C20.7267 15.75 21.0235 15.8729 21.2423 16.0917L23.334 18.1834V6.56248C23.334 6.05967 23.1342 5.57746 22.7787 5.22192C22.4232 4.86639 21.941 4.66665 21.4382 4.66665H11.2298ZM12.8223 8.16665C12.8223 7.52231 13.3447 6.99998 13.989 6.99998H14.0007C14.645 6.99998 15.1673 7.52231 15.1673 8.16665C15.1673 8.81098 14.645 9.33331 14.0007 9.33331H13.989C13.3447 9.33331 12.8223 8.81098 12.8223 8.16665ZM17.489 8.16665C17.489 7.52231 18.0113 6.99998 18.6557 6.99998H18.6673C19.3116 6.99998 19.834 7.52231 19.834 8.16665C19.834 8.81098 19.3116 9.33331 18.6673 9.33331H18.6557C18.0113 9.33331 17.489 8.81098 17.489 8.16665ZM13.2595 10.7656C13.7572 10.3563 14.4924 10.4279 14.9017 10.9255C15.319 11.4329 15.8428 11.6666 16.334 11.6666C16.8252 11.6666 17.349 11.4329 17.7663 10.9255C18.1756 10.4279 18.9108 10.3563 19.4084 10.7656C19.9061 11.1749 19.9777 11.9101 19.5684 12.4078C18.7574 13.3937 17.5974 14 16.334 14C15.0705 14 13.9106 13.3937 13.0996 12.4078C12.6903 11.9101 12.7619 11.1749 13.2595 10.7656Z"/>
        <path fill-rule="evenodd" clip-rule="evenodd" d="M3.0174 11.1834C3.45499 10.7458 4.04848 10.5 4.66732 10.5C5.31165 10.5 5.83398 11.0223 5.83398 11.6666C5.83398 12.311 5.31165 12.8333 4.66732 12.8333V21.6834L6.17569 20.175C6.39449 19.9562 6.69123 19.8333 7.00065 19.8333H15.1673C15.6229 19.3777 16.3616 19.3777 16.8172 19.8333C17.2728 20.2889 17.2728 21.0276 16.8172 21.4832C16.3796 21.9208 15.7862 22.1666 15.1673 22.1666H7.4839L4.32561 25.3249C3.99194 25.6586 3.49014 25.7584 3.05419 25.5778C2.61823 25.3973 2.33398 24.9719 2.33398 24.5V12.8333C2.33398 12.2145 2.57982 11.621 3.0174 11.1834Z"/>
    </symbol>

    <symbol id="world-plus" viewBox="0 0 33 33">
        <path fill-rule="evenodd" clip-rule="evenodd" d="M21.7291 11.0266C21.615 10.9998 21.4963 10.9929 21.3786 11.0072C21.2527 11.0024 21.1265 11 21 11C20.8735 11 20.7473 11.0024 20.6214 11.0072C20.5037 10.9929 20.385 10.9998 20.2709 11.0266C17.8853 11.2009 15.6317 12.2262 13.9289 13.9289C12.0536 15.8043 11 18.3478 11 21C11 22.3132 11.2587 23.6136 11.7612 24.8268C12.2638 26.0401 13.0003 27.1425 13.9289 28.0711C14.8575 28.9997 15.9599 29.7363 17.1732 30.2388C18.1613 30.6481 19.2072 30.8956 20.2708 30.9734C20.3849 31.0003 20.5037 31.0072 20.6215 30.9928C20.7475 30.9976 20.8737 31 21 31C21.1263 31 21.2525 30.9976 21.3785 30.9928C21.4963 31.0072 21.6151 31.0003 21.7292 30.9734C22.7928 30.8956 23.8387 30.6481 24.8268 30.2388C26.0401 29.7363 27.1425 28.9997 28.0711 28.0711C28.9997 27.1425 29.7362 26.0401 30.2388 24.8268C30.7413 23.6136 31 22.3132 31 21C31 18.3478 29.9464 15.8043 28.0711 13.9289C26.3683 12.2262 24.1147 11.2009 21.7291 11.0266ZM18.6235 13.3611C17.3968 13.7428 16.2683 14.418 15.3431 15.3432C14.8444 15.8419 14.4184 16.3996 14.0718 17H17.3723C17.6577 15.7476 18.0769 14.5275 18.6235 13.3611ZM19.4303 17C19.7798 15.6465 20.3063 14.3398 21 13.1151C21.6937 14.3398 22.2202 15.6465 22.5697 17H19.4303ZM17.0337 19H13.254C13.0867 19.6479 13 20.3195 13 21C13 21.6762 13.0857 22.3482 13.254 23H17.0337C16.9596 22.338 16.9222 21.6703 16.9222 21C16.9222 20.3297 16.9596 19.662 17.0337 19ZM19.0477 23C18.9644 22.3389 18.9222 21.6709 18.9222 21C18.9222 20.3291 18.9644 19.6612 19.0477 19H22.9523C23.0356 19.6612 23.0778 20.3291 23.0778 21C23.0778 21.6709 23.0356 22.3389 22.9523 23H19.0477ZM17.3723 25H14.0718C14.4206 25.6042 14.8477 26.1614 15.3431 26.6569C16.086 27.3997 16.9679 27.989 17.9385 28.3911C18.1634 28.4842 18.3919 28.5668 18.6235 28.6389C18.0769 27.4725 17.6577 26.2524 17.3723 25ZM21 28.885C20.3063 27.6602 19.7798 26.3536 19.4303 25H22.5697C22.2202 26.3536 21.6937 27.6602 21 28.885ZM23.3765 28.6389C23.6081 28.5668 23.8366 28.4842 24.0615 28.3911C25.0321 27.989 25.914 27.3997 26.6569 26.6569C27.1523 26.1614 27.5794 25.6042 27.9282 25H24.6277C24.3423 26.2524 23.9231 27.4725 23.3765 28.6389ZM24.9663 23H28.746C28.9143 22.3482 29 21.6762 29 21C29 20.3195 28.9133 19.6479 28.746 19H24.9663C25.0404 19.662 25.0778 20.3297 25.0778 21C25.0778 21.6703 25.0404 22.338 24.9663 23ZM24.6277 17H27.9282C27.5816 16.3996 27.1556 15.8419 26.6569 15.3432C25.7317 14.418 24.6032 13.7428 23.3765 13.3611C23.9231 14.5275 24.3423 15.7476 24.6277 17Z" fill="#616161" stroke="white" stroke-linecap="round" stroke-linejoin="round"/>
        <circle cx="12" cy="12" r="9" fill="white"/>
        <path fill-rule="evenodd" clip-rule="evenodd" d="M12 4C12.5523 4 13 4.44772 13 5V11H19C19.5523 11 20 11.4477 20 12C20 12.5523 19.5523 13 19 13H13V19C13 19.5523 12.5523 20 12 20C11.4477 20 11 19.5523 11 19V13H5C4.44772 13 4 12.5523 4 12C4 11.4477 4.44772 11 5 11H11V5C11 4.44772 11.4477 4 12 4Z" fill="#616161" stroke="white" stroke-linecap="round" stroke-linejoin="round"/>
    </symbol>

    <symbol id="password" width="243" height="13" viewBox="0 0 243 13">
        <path opacity="0.3" d="M6 0.664062C9.21094 0.664062 11.8125 3.26562 11.8125 6.47656C11.8125 9.6875 9.21094 12.2891 6 12.2891C2.78906 12.2891 0.1875 9.6875 0.1875 6.47656C0.1875 3.26562 2.78906 0.664062 6 0.664062ZM21.36 0.664062C24.5709 0.664062 27.1725 3.26562 27.1725 6.47656C27.1725 9.6875 24.5709 12.2891 21.36 12.2891C18.1491 12.2891 15.5475 9.6875 15.5475 6.47656C15.5475 3.26562 18.1491 0.664062 21.36 0.664062ZM36.72 0.664062C39.9309 0.664062 42.5325 3.26562 42.5325 6.47656C42.5325 9.6875 39.9309 12.2891 36.72 12.2891C33.5091 12.2891 30.9075 9.6875 30.9075 6.47656C30.9075 3.26562 33.5091 0.664062 36.72 0.664062ZM52.08 0.664062C55.2909 0.664062 57.8925 3.26562 57.8925 6.47656C57.8925 9.6875 55.2909 12.2891 52.08 12.2891C48.8691 12.2891 46.2675 9.6875 46.2675 6.47656C46.2675 3.26562 48.8691 0.664062 52.08 0.664062ZM67.44 0.664062C70.6509 0.664062 73.2525 3.26562 73.2525 6.47656C73.2525 9.6875 70.6509 12.2891 67.44 12.2891C64.2291 12.2891 61.6275 9.6875 61.6275 6.47656C61.6275 3.26562 64.2291 0.664062 67.44 0.664062ZM82.8 0.664062C86.0109 0.664062 88.6125 3.26562 88.6125 6.47656C88.6125 9.6875 86.0109 12.2891 82.8 12.2891C79.5891 12.2891 76.9875 9.6875 76.9875 6.47656C76.9875 3.26562 79.5891 0.664062 82.8 0.664062ZM98.16 0.664062C101.371 0.664062 103.972 3.26562 103.972 6.47656C103.972 9.6875 101.371 12.2891 98.16 12.2891C94.9491 12.2891 92.3475 9.6875 92.3475 6.47656C92.3475 3.26562 94.9491 0.664062 98.16 0.664062ZM113.52 0.664062C116.731 0.664062 119.332 3.26562 119.332 6.47656C119.332 9.6875 116.731 12.2891 113.52 12.2891C110.309 12.2891 107.707 9.6875 107.707 6.47656C107.707 3.26562 110.309 0.664062 113.52 0.664062ZM128.88 0.664062C132.091 0.664062 134.692 3.26562 134.692 6.47656C134.692 9.6875 132.091 12.2891 128.88 12.2891C125.669 12.2891 123.067 9.6875 123.067 6.47656C123.067 3.26562 125.669 0.664062 128.88 0.664062ZM144.24 0.664062C147.451 0.664062 150.053 3.26562 150.053 6.47656C150.053 9.6875 147.451 12.2891 144.24 12.2891C141.029 12.2891 138.428 9.6875 138.428 6.47656C138.428 3.26562 141.029 0.664062 144.24 0.664062ZM159.6 0.664062C162.811 0.664062 165.413 3.26562 165.413 6.47656C165.413 9.6875 162.811 12.2891 159.6 12.2891C156.389 12.2891 153.788 9.6875 153.788 6.47656C153.788 3.26562 156.389 0.664062 159.6 0.664062ZM174.96 0.664062C178.171 0.664062 180.772 3.26562 180.772 6.47656C180.772 9.6875 178.171 12.2891 174.96 12.2891C171.749 12.2891 169.147 9.6875 169.147 6.47656C169.147 3.26562 171.749 0.664062 174.96 0.664062ZM190.32 0.664062C193.531 0.664062 196.132 3.26562 196.132 6.47656C196.132 9.6875 193.531 12.2891 190.32 12.2891C187.109 12.2891 184.507 9.6875 184.507 6.47656C184.507 3.26562 187.109 0.664062 190.32 0.664062ZM205.68 0.664062C208.891 0.664062 211.492 3.26562 211.492 6.47656C211.492 9.6875 208.891 12.2891 205.68 12.2891C202.469 12.2891 199.867 9.6875 199.867 6.47656C199.867 3.26562 202.469 0.664062 205.68 0.664062ZM221.04 0.664062C224.251 0.664062 226.852 3.26562 226.852 6.47656C226.852 9.6875 224.251 12.2891 221.04 12.2891C217.829 12.2891 215.227 9.6875 215.227 6.47656C215.227 3.26562 217.829 0.664062 221.04 0.664062ZM236.4 0.664062C239.611 0.664062 242.212 3.26562 242.212 6.47656C242.212 9.6875 239.611 12.2891 236.4 12.2891C233.189 12.2891 230.587 9.6875 230.587 6.47656C230.587 3.26562 233.189 0.664062 236.4 0.664062Z" fill="black"/>
    </symbol>

    <symbol id="lock" fill="none">
        <path fill-rule="evenodd" clip-rule="evenodd" d="M8 2.02295C7.20435 2.02295 6.44129 2.33902 5.87868 2.90163C5.31607 3.46424 5 4.2273 5 5.02295V8.02295H11V5.02295C11 4.2273 10.6839 3.46424 10.1213 2.90163C9.55871 2.33902 8.79565 2.02295 8 2.02295ZM13 8.02295V5.02295C13 3.69687 12.4732 2.4251 11.5355 1.48742C10.5979 0.549733 9.32608 0.0229492 8 0.0229492C6.67392 0.0229492 5.40215 0.549733 4.46447 1.48742C3.52678 2.4251 3 3.69687 3 5.02295V8.02295C2.20435 8.02295 1.44129 8.33902 0.87868 8.90163C0.31607 9.46424 0 10.2273 0 11.0229V17.0229C0 17.8186 0.31607 18.5817 0.87868 19.1443C1.44129 19.7069 2.20435 20.0229 3 20.0229H13C13.7957 20.0229 14.5587 19.7069 15.1213 19.1443C15.6839 18.5817 16 17.8186 16 17.0229V11.0229C16 10.2273 15.6839 9.46424 15.1213 8.90163C14.5587 8.33902 13.7957 8.02295 13 8.02295ZM3 10.0229C2.73478 10.0229 2.48043 10.1283 2.29289 10.3158C2.10536 10.5034 2 10.7577 2 11.0229V17.0229C2 17.2882 2.10536 17.5425 2.29289 17.7301C2.48043 17.9176 2.73478 18.0229 3 18.0229H13C13.2652 18.0229 13.5196 17.9176 13.7071 17.7301C13.8946 17.5425 14 17.2882 14 17.0229V11.0229C14 10.7577 13.8946 10.5034 13.7071 10.3158C13.5196 10.1283 13.2652 10.0229 13 10.0229H3ZM6.58579 12.6087C6.96086 12.2337 7.46957 12.0229 8 12.0229C8.53043 12.0229 9.03914 12.2337 9.41421 12.6087C9.78929 12.9838 10 13.4925 10 14.0229C10 14.5534 9.78929 15.0621 9.41421 15.4372C9.03914 15.8122 8.53043 16.0229 8 16.0229C7.46957 16.0229 6.96086 15.8122 6.58579 15.4372C6.21071 15.0621 6 14.5534 6 14.0229C6 13.4925 6.21071 12.9838 6.58579 12.6087Z" fill="#3A3A3A"/>
    </symbol>

    <symbol id="door-out" width="21" height="20" viewBox="0 0 21 20" fill="none" xmlns="http://www.w3.org/2000/svg">
        <path fill-rule="evenodd" clip-rule="evenodd" d="M2.89825 3.23223C3.36709 2.76339 4.00297 2.5 4.66602 2.5H10.4993C11.1624 2.5 11.7983 2.76339 12.2671 3.23223C12.736 3.70107 12.9993 4.33696 12.9993 5V6.66667C12.9993 7.1269 12.6263 7.5 12.166 7.5C11.7058 7.5 11.3327 7.1269 11.3327 6.66667V5C11.3327 4.77899 11.2449 4.56702 11.0886 4.41074C10.9323 4.25446 10.7204 4.16667 10.4993 4.16667H4.66602C4.445 4.16667 4.23304 4.25446 4.07676 4.41074C3.92048 4.56702 3.83268 4.77899 3.83268 5V15C3.83268 15.221 3.92048 15.433 4.07676 15.5893C4.23304 15.7455 4.445 15.8333 4.66602 15.8333H10.4993C10.7204 15.8333 10.9323 15.7455 11.0886 15.5893C11.2449 15.433 11.3327 15.221 11.3327 15V13.3333C11.3327 12.8731 11.7058 12.5 12.166 12.5C12.6263 12.5 12.9993 12.8731 12.9993 13.3333V15C12.9993 15.663 12.736 16.2989 12.2671 16.7678C11.7983 17.2366 11.1624 17.5 10.4993 17.5H4.66602C4.00297 17.5 3.36709 17.2366 2.89825 16.7678C2.42941 16.2989 2.16602 15.663 2.16602 15V5C2.16602 4.33696 2.42941 3.70107 2.89825 3.23223ZM14.9101 6.91074C15.2355 6.58531 15.7632 6.58531 16.0886 6.91074L18.5886 9.41074C18.5902 9.41231 18.5917 9.41388 18.5933 9.41546C18.7344 9.55887 18.8158 9.74481 18.8304 9.93757C18.8346 9.99381 18.8331 10.0506 18.8258 10.1071C18.8055 10.2644 18.7404 10.417 18.6304 10.5443C18.6157 10.5614 18.6002 10.5779 18.5842 10.5937L16.0886 13.0893C15.7632 13.4147 15.2355 13.4147 14.9101 13.0893C14.5847 12.7638 14.5847 12.2362 14.9101 11.9107L15.9875 10.8333H7.99935C7.53911 10.8333 7.16602 10.4602 7.16602 10C7.16602 9.53976 7.53911 9.16667 7.99935 9.16667H15.9875L14.9101 8.08926C14.5847 7.76382 14.5847 7.23618 14.9101 6.91074Z" fill="white"/>
    </symbol>

    <symbol id="home" fill="none" xmlns="http://www.w3.org/2000/svg">
        <path fill-rule="evenodd" clip-rule="evenodd" d="M6.59091 0.486013C6.83165 0.29877 7.16876 0.29877 7.4095 0.486013L13.4095 5.15268C13.6343 5.32753 13.7232 5.62589 13.6308 5.89527C13.5384 6.16466 13.285 6.34558 13.0002 6.34558H12.3335V12.3456C12.3335 12.7138 12.0351 13.0122 11.6669 13.0122H8.33354C7.96535 13.0122 7.66687 12.7138 7.66687 12.3456V10.3516C7.66677 10.3489 7.66651 10.3436 7.66596 10.3358C7.66462 10.3171 7.66162 10.2859 7.65511 10.2468C7.64155 10.1655 7.61568 10.0672 7.57058 9.97706C7.52679 9.88948 7.47158 9.82218 7.40124 9.77528C7.33507 9.73117 7.21688 9.67892 7.0002 9.67892C6.78353 9.67892 6.66534 9.73117 6.59917 9.77528C6.52883 9.82218 6.47361 9.88948 6.42982 9.97706C6.38473 10.0672 6.35886 10.1655 6.3453 10.2468C6.33878 10.2859 6.33578 10.3171 6.33445 10.3358C6.33389 10.3436 6.33364 10.3489 6.33354 10.3516V12.3456C6.33354 12.7138 6.03506 13.0122 5.66687 13.0122H2.33354C1.96535 13.0122 1.66687 12.7138 1.66687 12.3456V6.34558H1.0002C0.7154 6.34558 0.46205 6.16466 0.369621 5.89527C0.277192 5.62589 0.366099 5.32753 0.590909 5.15268L6.59091 0.486013ZM2.75267 5.16046C2.90367 5.28268 3.0002 5.46952 3.0002 5.67891V11.6789H5.0002V10.3456H5.66687C5.0002 10.3456 5.0002 10.3453 5.0002 10.3449L5.0002 10.3442L5.00021 10.3427L5.00023 10.3393L5.00033 10.331C5.00043 10.3248 5.0006 10.3172 5.0009 10.3084C5.00149 10.2908 5.00256 10.268 5.0045 10.2408C5.00837 10.1866 5.01579 10.1136 5.03011 10.0276C5.05822 9.85899 5.11568 9.62392 5.23725 9.38077C5.36013 9.13502 5.55491 8.86899 5.85957 8.66588C6.1684 8.45999 6.55021 8.34558 7.0002 8.34558C7.45019 8.34558 7.83201 8.45999 8.14084 8.66588C8.44549 8.86899 8.64028 9.13502 8.76315 9.38077C8.88473 9.62392 8.94219 9.85899 8.9703 10.0276C8.98462 10.1136 8.99203 10.1866 8.9959 10.2408C8.99785 10.268 8.99892 10.2908 8.99951 10.3084C8.9998 10.3172 8.99998 10.3248 9.00008 10.331L9.00018 10.3393L9.0002 10.3427L9.0002 10.3442V10.3449C9.0002 10.3453 9.0002 10.3456 8.33354 10.3456H9.0002V11.6789H11.0002V5.67891C11.0002 5.46952 11.0967 5.28268 11.2477 5.16046L7.0002 1.85682L2.75267 5.16046Z" fill="white"/>
    </symbol>

  <symbol id="uk-flag" viewBox="0 0 256 256">
    <g transform="translate(1.4066 1.4066) scale(2.81)">
      <path
        d="M45 90C20.147 90 0 69.853 0 45h90C90 69.853 69.853 90 45 90z"
        fill="#FFD500"
      />
      <path
        d="M45 0C20.147 0 0 20.147 0 45h90C90 20.147 69.853 0 45 0z"
        fill="#005BBB"
      />
    </g>
  </symbol>

  <symbol id="fr-flag" viewBox="0 0 256 256">
    <g style="stroke: none; stroke-width: 0; stroke-dasharray: none; stroke-linecap: butt; stroke-linejoin: miter; stroke-miterlimit: 10; fill: none; fill-rule: nonzero; opacity: 1;" transform="translate(1.4065934065934016 1.4065934065934016) scale(2.81 2.81)">
        <path d="M 59.999 2.571 l 0 84.859 c 17.466 -6.175 29.985 -22.818 30 -42.396 v -0.068 C 89.985 25.389 77.465 8.745 59.999 2.571 z" style="stroke: none; stroke-width: 1; stroke-dasharray: none; stroke-linecap: butt; stroke-linejoin: miter; stroke-miterlimit: 10; fill: rgb(243,24,48); fill-rule: nonzero; opacity: 1;" transform=" matrix(1 0 0 1 0 0) " stroke-linecap="round"/>
        <path d="M 30 87.429 l 0 -84.858 C 12.524 8.75 0 25.408 0 45 S 12.524 81.25 30 87.429 z" style="stroke: none; stroke-width: 1; stroke-dasharray: none; stroke-linecap: butt; stroke-linejoin: miter; stroke-miterlimit: 10; fill: rgb(0,38,127); fill-rule: nonzero; opacity: 1;" transform=" matrix(1 0 0 1 0 0) " stroke-linecap="round"/>
        <path d="M 30 87.429 C 34.693 89.088 39.739 90 45 90 c 5.261 0 10.307 -0.911 15 -2.571 l 0 -84.859 C 55.307 0.911 50.261 0 45 0 c -5.261 0 -10.307 0.912 -15 2.571 L 30 87.429 z" style="stroke: none; stroke-width: 1; stroke-dasharray: none; stroke-linecap: butt; stroke-linejoin: miter; stroke-miterlimit: 10; fill: rgb(243,244,245); fill-rule: nonzero; opacity: 1;" transform=" matrix(1 0 0 1 0 0) " stroke-linecap="round"/>
    </g>
  </symbol>

  <symbol id="en-flag" viewBox="0 0 256 256">
    <g style="stroke: none; stroke-width: 0; stroke-dasharray: none; stroke-linecap: butt; stroke-linejoin: miter; stroke-miterlimit: 10; fill: none; fill-rule: nonzero; opacity: 1;" transform="translate(1.4065934065934016 1.4065934065934016) scale(2.81 2.81)">
        <path d="M 88.35 57.052 c 0.034 -0.123 0.076 -0.243 0.109 -0.367 l -0.004 -0.002 C 89.457 52.957 90 49.043 90 45 c 0 -4.033 -0.54 -7.938 -1.538 -11.657 l 0.004 -0.002 c -0.039 -0.146 -0.088 -0.289 -0.128 -0.434 c -0.137 -0.492 -0.28 -0.982 -0.434 -1.468 c -0.081 -0.257 -0.167 -0.512 -0.253 -0.768 c -0.073 -0.217 -0.139 -0.437 -0.215 -0.653 h -0.015 c -1.645 -4.653 -4.021 -8.96 -7.01 -12.768 L 59.997 27.458 V 2.57 c -4.368 -1.544 -9.046 -2.427 -13.915 -2.542 h -2.164 c -4.868 0.115 -9.545 0.998 -13.913 2.541 v 24.889 L 9.589 17.249 c -2.989 3.809 -5.366 8.116 -7.01 12.769 H 2.564 c -0.076 0.216 -0.143 0.436 -0.216 0.653 c -0.086 0.255 -0.172 0.509 -0.253 0.765 c -0.154 0.486 -0.297 0.977 -0.434 1.47 c -0.04 0.145 -0.089 0.287 -0.128 0.432 l 0.004 0.002 C 0.54 37.061 0 40.966 0 45 c 0 4.043 0.543 7.957 1.545 11.684 l -0.004 0.002 c 0.033 0.123 0.074 0.242 0.108 0.365 c 0.146 0.524 0.298 1.046 0.462 1.562 c 0.075 0.236 0.154 0.47 0.233 0.705 c 0.077 0.231 0.148 0.464 0.229 0.693 H 2.59 c 1.647 4.651 4.025 8.955 7.016 12.761 l 20.4 -10.2 v 24.86 C 34.697 89.089 39.741 90 45 90 c 5.26 0 10.305 -0.911 14.997 -2.57 V 62.572 l 20.398 10.199 c 2.991 -3.806 5.368 -8.11 7.015 -12.76 h 0.015 c 0.081 -0.229 0.152 -0.463 0.23 -0.694 c 0.079 -0.234 0.158 -0.468 0.233 -0.704 C 88.052 58.096 88.205 57.575 88.35 57.052 z" style="stroke: none; stroke-width: 1; stroke-dasharray: none; stroke-linecap: butt; stroke-linejoin: miter; stroke-miterlimit: 10; fill: rgb(243,244,245); fill-rule: nonzero; opacity: 1;" transform=" matrix(1 0 0 1 0 0) " stroke-linecap="round"/>
        <path d="M 53.999 0.902 c -2.565 -0.521 -5.213 -0.81 -7.917 -0.874 h -2.164 c -2.703 0.064 -5.35 0.354 -7.914 0.874 v 35.116 H 0.899 C 0.311 38.92 0 41.924 0 45 c 0 3.087 0.312 6.1 0.904 9.012 h 35.1 v 35.087 C 38.911 89.689 41.919 90 45 90 c 3.082 0 6.091 -0.311 8.999 -0.902 V 54.012 h 35.097 C 89.688 51.1 90 48.087 90 45 c 0 -3.076 -0.311 -6.08 -0.899 -8.983 H 53.999 V 0.902 z" style="stroke: none; stroke-width: 1; stroke-dasharray: none; stroke-linecap: butt; stroke-linejoin: miter; stroke-miterlimit: 10; fill: rgb(204,0,0); fill-rule: nonzero; opacity: 1;" transform=" matrix(1 0 0 1 0 0) " stroke-linecap="round"/>
        <path d="M 85.242 65.135 c 0.829 -1.653 1.56 -3.363 2.184 -5.125 H 74.993 L 85.242 65.135 z" style="stroke: none; stroke-width: 1; stroke-dasharray: none; stroke-linecap: butt; stroke-linejoin: miter; stroke-miterlimit: 10; fill: rgb(204,0,0); fill-rule: nonzero; opacity: 1;" transform=" matrix(1 0 0 1 0 0) " stroke-linecap="round"/>
        <path d="M 82.216 19.701 L 61.581 30.019 h 13.412 l 10.261 -5.131 C 84.353 23.088 83.341 21.354 82.216 19.701 z" style="stroke: none; stroke-width: 1; stroke-dasharray: none; stroke-linecap: butt; stroke-linejoin: miter; stroke-miterlimit: 10; fill: rgb(204,0,0); fill-rule: nonzero; opacity: 1;" transform=" matrix(1 0 0 1 0 0) " stroke-linecap="round"/>
        <path d="M 4.747 24.887 c -0.829 1.655 -1.559 3.368 -2.182 5.132 H 15.01 L 4.747 24.887 z" style="stroke: none; stroke-width: 1; stroke-dasharray: none; stroke-linecap: butt; stroke-linejoin: miter; stroke-miterlimit: 10; fill: rgb(204,0,0); fill-rule: nonzero; opacity: 1;" transform=" matrix(1 0 0 1 0 0) " stroke-linecap="round"/>
        <path d="M 7.8 70.321 L 28.422 60.01 H 15.01 L 4.758 65.136 C 5.661 66.936 6.674 68.67 7.8 70.321 z" style="stroke: none; stroke-width: 1; stroke-dasharray: none; stroke-linecap: butt; stroke-linejoin: miter; stroke-miterlimit: 10; fill: rgb(204,0,0); fill-rule: nonzero; opacity: 1;" transform=" matrix(1 0 0 1 0 0) " stroke-linecap="round"/>
        <path d="M 9.605 72.771" style="stroke: none; stroke-width: 1; stroke-dasharray: none; stroke-linecap: butt; stroke-linejoin: miter; stroke-miterlimit: 10; fill: rgb(0,0,102); fill-rule: nonzero; opacity: 1;" transform=" matrix(1 0 0 1 0 0) " stroke-linecap="round"/>
        <path d="M 80.412 17.251" style="stroke: none; stroke-width: 1; stroke-dasharray: none; stroke-linecap: butt; stroke-linejoin: miter; stroke-miterlimit: 10; fill: rgb(0,0,102); fill-rule: nonzero; opacity: 1;" transform=" matrix(1 0 0 1 0 0) " stroke-linecap="round"/>
        <path d="M 80.395 72.77" style="stroke: none; stroke-width: 1; stroke-dasharray: none; stroke-linecap: butt; stroke-linejoin: miter; stroke-miterlimit: 10; fill: rgb(0,0,102); fill-rule: nonzero; opacity: 1;" transform=" matrix(1 0 0 1 0 0) " stroke-linecap="round"/>
        <path d="M 9.589 17.25" style="stroke: none; stroke-width: 1; stroke-dasharray: none; stroke-linecap: butt; stroke-linejoin: miter; stroke-miterlimit: 10; fill: rgb(0,0,102); fill-rule: nonzero; opacity: 1;" transform=" matrix(1 0 0 1 0 0) " stroke-linecap="round"/>
        <path d="M 9.589 17.249 l 20.416 10.208 v -3.99 V 2.584 C 21.874 5.458 14.813 10.593 9.589 17.249 z" style="stroke: none; stroke-width: 1; stroke-dasharray: none; stroke-linecap: butt; stroke-linejoin: miter; stroke-miterlimit: 10; fill: rgb(0,0,102); fill-rule: nonzero; opacity: 1;" transform=" matrix(1 0 0 1 0 0) " stroke-linecap="round"/>
        <path d="M 59.997 2.585 v 22.302 v 2.57 L 80.411 17.25 C 75.188 10.594 68.128 5.459 59.997 2.585 z" style="stroke: none; stroke-width: 1; stroke-dasharray: none; stroke-linecap: butt; stroke-linejoin: miter; stroke-miterlimit: 10; fill: rgb(0,0,102); fill-rule: nonzero; opacity: 1;" transform=" matrix(1 0 0 1 0 0) " stroke-linecap="round"/>
        <path d="M 30.006 72.77 V 62.572 l -20.4 10.2 c 5.222 6.646 12.276 11.774 20.4 14.646 V 72.77 z" style="stroke: none; stroke-width: 1; stroke-dasharray: none; stroke-linecap: butt; stroke-linejoin: miter; stroke-miterlimit: 10; fill: rgb(0,0,102); fill-rule: nonzero; opacity: 1;" transform=" matrix(1 0 0 1 0 0) " stroke-linecap="round"/>
        <path d="M 59.997 62.572 v 9.296 v 15.548 c 8.123 -2.872 15.176 -8 20.398 -14.646 L 59.997 62.572 z" style="stroke: none; stroke-width: 1; stroke-dasharray: none; stroke-linecap: butt; stroke-linejoin: miter; stroke-miterlimit: 10; fill: rgb(0,0,102); fill-rule: nonzero; opacity: 1;" transform=" matrix(1 0 0 1 0 0) " stroke-linecap="round"/>
    </g>
  </symbol>

</svg>